<svg width="20" height="20" viewBox="0 0 20 20" fill="none" xmlns="http://www.w3.org/2000/svg">
<path d="M17.4999 11.035V16.6665C17.9602 16.6665 18.3333 17.0396 18.3333 17.4998C18.3333 17.9601 17.9602 18.3332 17.4999 18.3332H2.49992C2.03968 18.3332 1.66659 17.9601 1.66659 17.4998C1.66659 17.0396 2.03968 16.6665 2.49992 16.6665V11.035C1.49493 10.3623 0.833252 9.21667 0.833252 7.9165C0.833252 7.22722 1.02028 6.56335 1.36094 5.99772L3.621 2.08317C3.76986 1.82534 4.04497 1.6665 4.34268 1.6665H15.6572C15.9548 1.6665 16.23 1.82534 16.3788 2.08317L18.6312 5.9846C18.9796 6.56335 19.1666 7.22722 19.1666 7.9165C19.1666 9.21667 18.5049 10.3623 17.4999 11.035ZM15.8333 11.6436C15.6964 11.6588 15.5574 11.6665 15.4166 11.6665C14.3673 11.6665 13.399 11.2315 12.7083 10.5108C12.0175 11.2315 11.0492 11.6665 9.99992 11.6665C8.95067 11.6665 7.98233 11.2315 7.29158 10.5108C6.60083 11.2315 5.63251 11.6665 4.58325 11.6665C4.44242 11.6665 4.30339 11.6588 4.16658 11.6436V16.6665H15.8333V11.6436ZM4.82379 3.33317L2.79657 6.84418C2.60333 7.1652 2.49992 7.53225 2.49992 7.9165C2.49992 9.06709 3.43266 9.99984 4.58325 9.99984C5.44238 9.99984 6.20381 9.47509 6.51808 8.69109C6.79775 7.99336 7.78542 7.99336 8.06509 8.69109C8.37933 9.47509 9.14075 9.99984 9.99992 9.99984C10.8591 9.99984 11.6205 9.47509 11.9348 8.69109C12.2144 7.99336 13.2021 7.99336 13.4818 8.69109C13.796 9.47509 14.5574 9.99984 15.4166 9.99984C16.5672 9.99984 17.4999 9.06709 17.4999 7.9165C17.4999 7.53225 17.3965 7.1652 17.1955 6.83105L15.176 3.33317H4.82379Z" fill="#333333"/>
</svg>
