<svg width="17" height="12" viewBox="0 0 17 12" fill="none" xmlns="http://www.w3.org/2000/svg">
<path d="M9.23077 2.76923C9.23077 2.25943 9.64404 1.84615 10.1538 1.84615H11.0769C11.5867 1.84615 12 2.25943 12 2.76923V10.1538C12 10.6636 11.5867 11.0769 11.0769 11.0769H10.1538C9.64404 11.0769 9.23077 10.6636 9.23077 10.1538V2.76923Z" fill="#101010"/>
<path d="M13.8462 0.923077C13.8462 0.413275 14.2594 0 14.7692 0H15.6923C16.2021 0 16.6154 0.413276 16.6154 0.923077V10.1538C16.6154 10.6636 16.2021 11.0769 15.6923 11.0769H14.7692C14.2594 11.0769 13.8462 10.6636 13.8462 10.1538V0.923077Z" fill="#101010"/>
<path d="M4.61538 6C4.61538 5.4902 5.02866 5.07692 5.53846 5.07692H6.46154C6.97134 5.07692 7.38462 5.4902 7.38462 6V10.1538C7.38462 10.6636 6.97134 11.0769 6.46154 11.0769H5.53846C5.02866 11.0769 4.61538 10.6636 4.61538 10.1538V6Z" fill="#101010"/>
<path d="M0 8.30769C0 7.79789 0.413276 7.38462 0.923077 7.38462H1.84615C2.35596 7.38462 2.76923 7.79789 2.76923 8.30769V10.1538C2.76923 10.6636 2.35596 11.0769 1.84615 11.0769H0.923077C0.413276 11.0769 0 10.6636 0 10.1538V8.30769Z" fill="#101010"/>
</svg>
