<svg width="6" height="20" viewBox="0 0 6 20" fill="none" xmlns="http://www.w3.org/2000/svg">
<mask id="path-1-inside-1_11352_1843" fill="white">
<path d="M2.7292 13.7011C3.6851 12.8481 4.76597 11.8787 4.76597 9.96828H3.70874C3.70874 11.3712 2.93524 12.062 2.04015 12.8622C1.71251 13.1547 1.37136 13.4614 1.06061 13.8174V5.92527C1.32407 6.04159 1.62806 6.10504 1.96921 6.10504C3.67159 6.10504 5.83333 4.21925 5.83333 2.10081C5.83333 0.845964 5.02943 0 3.8371 0C3.02644 0 2.06379 0.437081 1.32745 1.14205C0.472882 1.96334 0 3.03137 0 4.15227V20C0.344528 20 0.709322 20 1.05723 20V19.4572C1.03358 18.3398 2.00637 17.656 2.72582 17.0145C3.68172 16.1614 4.76259 15.1921 4.76259 13.2816H3.70537C3.70537 14.6845 2.93187 15.3754 2.03677 16.1755C1.70913 16.4681 1.36798 16.7748 1.05723 17.1308V16.595C1.05723 15.1921 1.83073 14.5012 2.72582 13.7011M3.84048 1.10328C4.65788 1.10328 4.77948 1.72718 4.77948 2.09729C4.77948 2.16426 4.77273 2.23475 4.76597 2.30525C4.75246 2.411 4.71868 2.50617 4.66126 2.55904C4.4282 2.76348 3.64457 2.61896 3.07373 2.51674C2.60423 2.43215 2.12797 2.34403 1.68886 2.35107C2.30361 1.55446 3.23248 1.10328 3.84385 1.10328M1.06398 4.04653C1.07412 3.87029 1.10789 3.67289 1.21598 3.58125C1.47944 3.35213 2.26308 3.49313 2.89133 3.60592C3.30342 3.67994 3.72225 3.75749 4.11407 3.76454C3.57701 4.45894 2.77987 4.99824 1.96921 4.99824C1.34771 4.99824 1.06061 4.73035 1.06061 4.15227C1.06061 4.11702 1.06061 4.08178 1.06061 4.04653"/>
</mask>
<path d="M2.7292 13.7011C3.6851 12.8481 4.76597 11.8787 4.76597 9.96828H3.70874C3.70874 11.3712 2.93524 12.062 2.04015 12.8622C1.71251 13.1547 1.37136 13.4614 1.06061 13.8174V5.92527C1.32407 6.04159 1.62806 6.10504 1.96921 6.10504C3.67159 6.10504 5.83333 4.21925 5.83333 2.10081C5.83333 0.845964 5.02943 0 3.8371 0C3.02644 0 2.06379 0.437081 1.32745 1.14205C0.472882 1.96334 0 3.03137 0 4.15227V20C0.344528 20 0.709322 20 1.05723 20V19.4572C1.03358 18.3398 2.00637 17.656 2.72582 17.0145C3.68172 16.1614 4.76259 15.1921 4.76259 13.2816H3.70537C3.70537 14.6845 2.93187 15.3754 2.03677 16.1755C1.70913 16.4681 1.36798 16.7748 1.05723 17.1308V16.595C1.05723 15.1921 1.83073 14.5012 2.72582 13.7011M3.84048 1.10328C4.65788 1.10328 4.77948 1.72718 4.77948 2.09729C4.77948 2.16426 4.77273 2.23475 4.76597 2.30525C4.75246 2.411 4.71868 2.50617 4.66126 2.55904C4.4282 2.76348 3.64457 2.61896 3.07373 2.51674C2.60423 2.43215 2.12797 2.34403 1.68886 2.35107C2.30361 1.55446 3.23248 1.10328 3.84385 1.10328M1.06398 4.04653C1.07412 3.87029 1.10789 3.67289 1.21598 3.58125C1.47944 3.35213 2.26308 3.49313 2.89133 3.60592C3.30342 3.67994 3.72225 3.75749 4.11407 3.76454C3.57701 4.45894 2.77987 4.99824 1.96921 4.99824C1.34771 4.99824 1.06061 4.73035 1.06061 4.15227C1.06061 4.11702 1.06061 4.08178 1.06061 4.04653" fill="#F5EDE4"/>
<path d="M4.76597 9.96828H5.76597V8.96828H4.76597V9.96828ZM3.70874 9.96828V8.96828H2.70874V9.96828H3.70874ZM2.04015 12.8622L2.7062 13.6081L2.7066 13.6077L2.04015 12.8622ZM1.06061 13.8174H0.0606059V16.4837L1.81398 14.475L1.06061 13.8174ZM1.06061 5.92527L1.4645 5.01047L0.0606059 4.39064V5.92527H1.06061ZM1.32745 1.14205L0.635895 0.419722L0.634516 0.421047L1.32745 1.14205ZM0 20H-1V21H0V20ZM1.05723 20V21H2.05723V20H1.05723ZM1.05723 19.4572H2.05723V19.4466L2.057 19.436L1.05723 19.4572ZM2.72582 17.0145L3.39135 17.7608L3.39164 17.7606L2.72582 17.0145ZM4.76259 13.2816H5.76259V12.2816H4.76259V13.2816ZM3.70537 13.2816V12.2816H2.70537V13.2816H3.70537ZM2.03677 16.1755L2.70282 16.9214L2.70322 16.9211L2.03677 16.1755ZM1.05723 17.1308H0.0572281V19.7971L1.8106 17.7884L1.05723 17.1308ZM4.76597 2.30525L5.75791 2.43199L5.75991 2.41634L5.76141 2.40064L4.76597 2.30525ZM4.66126 2.55904L5.3207 3.3108L5.32976 3.30285L5.33863 3.29468L4.66126 2.55904ZM3.07373 2.51674L2.8964 3.5009L2.89746 3.50109L3.07373 2.51674ZM1.68886 2.35107L0.897184 1.74014L-0.371598 3.38428L1.70492 3.35095L1.68886 2.35107ZM1.21598 3.58125L1.86275 4.34404L1.87219 4.33583L1.21598 3.58125ZM2.89133 3.60592L3.06813 2.62167L3.06804 2.62166L2.89133 3.60592ZM4.11407 3.76454L4.90509 4.37633L6.12384 2.80054L4.13206 2.7647L4.11407 3.76454ZM2.7292 13.7011L3.39502 14.4472C4.35236 13.5929 5.76597 12.3588 5.76597 9.96828H4.76597H3.76597C3.76597 11.3987 3.01784 12.1032 2.06339 12.955L2.7292 13.7011ZM4.76597 9.96828V8.96828H3.70874V9.96828V10.9683H4.76597V9.96828ZM3.70874 9.96828H2.70874C2.70874 10.88 2.28686 11.3003 1.37369 12.1166L2.04015 12.8622L2.7066 13.6077C3.58362 12.8237 4.70874 11.8623 4.70874 9.96828H3.70874ZM2.04015 12.8622L1.3741 12.1163C1.0503 12.4054 0.664487 12.7505 0.307235 13.1598L1.06061 13.8174L1.81398 14.475C2.07823 14.1723 2.37471 13.9041 2.7062 13.6081L2.04015 12.8622ZM1.06061 13.8174H2.06061V5.92527H1.06061H0.0606059V13.8174H1.06061ZM1.06061 5.92527L0.656714 6.84008C1.05951 7.01792 1.50283 7.10504 1.96921 7.10504V6.10504V5.10504C1.75329 5.10504 1.58862 5.06527 1.4645 5.01047L1.06061 5.92527ZM1.96921 6.10504V7.10504C3.15708 7.10504 4.36053 6.4708 5.23866 5.61246C6.12784 4.74333 6.83333 3.49915 6.83333 2.10081H5.83333H4.83333C4.83333 2.82091 4.45795 3.57884 3.84066 4.18222C3.21234 4.79638 2.48372 5.10504 1.96921 5.10504V6.10504ZM5.83333 2.10081H6.83333C6.83333 1.25824 6.56038 0.473093 6.00725 -0.109002C5.44995 -0.695495 4.67926 -1 3.8371 -1V0V1C4.18727 1 4.4147 1.11848 4.55743 1.26868C4.70433 1.42328 4.83333 1.68853 4.83333 2.10081H5.83333ZM3.8371 0V-1C2.70774 -1 1.50906 -0.416239 0.635896 0.419724L1.32745 1.14205L2.019 1.86438C2.61852 1.2904 3.34514 1 3.8371 1V0ZM1.32745 1.14205L0.634516 0.421047C-0.402346 1.41754 -1 2.74059 -1 4.15227H0H1C1 3.32216 1.34811 2.50915 2.02038 1.86306L1.32745 1.14205ZM0 4.15227H-1V20H0H1V4.15227H0ZM0 20V21C0.000672906 21 0.00134589 21 0.00201895 21C0.00269201 21 0.00336515 21 0.00403836 21C0.00471158 21 0.00538487 21 0.00605824 21C0.00673161 21 0.00740505 21 0.00807857 21C0.00875209 21 0.00942569 21 0.0100994 21C0.010773 21 0.0114468 21 0.0121206 21C0.0127944 21 0.0134683 21 0.0141423 21C0.0148163 21 0.0154903 21 0.0161645 21C0.0168386 21 0.0175128 21 0.0181871 21C0.0188613 21 0.0195357 21 0.0202101 21C0.0208845 21 0.021559 21 0.0222336 21C0.0229082 21 0.0235828 21 0.0242576 21C0.0249323 21 0.0256071 21 0.0262819 21C0.0269568 21 0.0276318 21 0.0283068 21C0.0289818 21 0.0296569 21 0.030332 21C0.0310072 21 0.0316824 21 0.0323577 21C0.0330331 21 0.0337084 21 0.0343839 21C0.0350593 21 0.0357349 21 0.0364105 21C0.0370861 21 0.0377617 21 0.0384375 21C0.0391132 21 0.0397891 21 0.0404649 21C0.0411408 21 0.0418168 21 0.0424928 21C0.0431689 21 0.043845 21 0.0445211 21C0.0451973 21 0.0458735 21 0.0465499 21C0.0472262 21 0.0479026 21 0.048579 21C0.0492555 21 0.049932 21 0.0506086 21C0.0512852 21 0.0519619 21 0.0526386 21C0.0533154 21 0.0539922 21 0.054669 21C0.0553459 21 0.0560229 21 0.0566999 21C0.0573769 21 0.058054 21 0.0587312 21C0.0594083 21 0.0600855 21 0.0607628 21C0.0614401 21 0.0621175 21 0.0627949 21C0.0634724 21 0.0641499 21 0.0648274 21C0.065505 21 0.0661826 21 0.0668604 21C0.0675381 21 0.0682158 21 0.0688937 21C0.0695715 21 0.0702494 21 0.0709274 21C0.0716054 21 0.0722834 21 0.0729616 21C0.0736397 21 0.0743178 21 0.0749961 21C0.0756743 21 0.0763527 21 0.077031 21C0.0777094 21 0.0783879 21 0.0790664 21C0.0797449 21 0.0804235 21 0.0811021 21C0.0817808 21 0.0824595 21 0.0831383 21C0.0838171 21 0.0844959 21 0.0851748 21C0.0858537 21 0.0865327 21 0.0872118 21C0.0878908 21 0.0885699 21 0.0892491 21C0.0899283 21 0.0906075 21 0.0912868 21C0.0919661 21 0.0926455 21 0.0933249 21C0.0940043 21 0.0946838 21 0.0953634 21C0.096043 21 0.0967226 21 0.0974023 21C0.098082 21 0.0987617 21 0.0994415 21C0.100121 21 0.100801 21 0.101481 21C0.102161 21 0.102841 21 0.103521 21C0.104201 21 0.104881 21 0.105562 21C0.106242 21 0.106922 21 0.107602 21C0.108283 21 0.108963 21 0.109644 21C0.110324 21 0.111005 21 0.111685 21C0.112366 21 0.113046 21 0.113727 21C0.114408 21 0.115088 21 0.115769 21C0.11645 21 0.117131 21 0.117812 21C0.118493 21 0.119174 21 0.119855 21C0.120536 21 0.121217 21 0.121898 21C0.122579 21 0.123261 21 0.123942 21C0.124623 21 0.125305 21 0.125986 21C0.126668 21 0.127349 21 0.128031 21C0.128712 21 0.129394 21 0.130075 21C0.130757 21 0.131439 21 0.132121 21C0.132802 21 0.133484 21 0.134166 21C0.134848 21 0.13553 21 0.136212 21C0.136894 21 0.137576 21 0.138258 21C0.13894 21 0.139623 21 0.140305 21C0.140987 21 0.141669 21 0.142352 21C0.143034 21 0.143717 21 0.144399 21C0.145082 21 0.145764 21 0.146447 21C0.147129 21 0.147812 21 0.148495 21C0.149177 21 0.14986 21 0.150543 21C0.151226 21 0.151909 21 0.152592 21C0.153275 21 0.153958 21 0.154641 21C0.155324 21 0.156007 21 0.15669 21C0.157373 21 0.158056 21 0.15874 21C0.159423 21 0.160106 21 0.16079 21C0.161473 21 0.162157 21 0.16284 21C0.163524 21 0.164207 21 0.164891 21C0.165574 21 0.166258 21 0.166942 21C0.167626 21 0.168309 21 0.168993 21C0.169677 21 0.170361 21 0.171045 21C0.171729 21 0.172413 21 0.173097 21C0.173781 21 0.174465 21 0.175149 21C0.175833 21 0.176517 21 0.177202 21C0.177886 21 0.17857 21 0.179255 21C0.179939 21 0.180623 21 0.181308 21C0.181992 21 0.182677 21 0.183362 21C0.184046 21 0.184731 21 0.185415 21C0.1861 21 0.186785 21 0.18747 21C0.188154 21 0.188839 21 0.189524 21C0.190209 21 0.190894 21 0.191579 21C0.192264 21 0.192949 21 0.193634 21C0.194319 21 0.195004 21 0.19569 21C0.196375 21 0.19706 21 0.197745 21C0.198431 21 0.199116 21 0.199801 21C0.200487 21 0.201172 21 0.201858 21C0.202543 21 0.203229 21 0.203914 21C0.2046 21 0.205286 21 0.205971 21C0.206657 21 0.207343 21 0.208029 21C0.208714 21 0.2094 21 0.210086 21C0.210772 21 0.211458 21 0.212144 21C0.21283 21 0.213516 21 0.214202 21C0.214888 21 0.215574 21 0.21626 21C0.216947 21 0.217633 21 0.218319 21C0.219005 21 0.219692 21 0.220378 21C0.221065 21 0.221751 21 0.222437 21C0.223124 21 0.22381 21 0.224497 21C0.225184 21 0.22587 21 0.226557 21C0.227243 21 0.22793 21 0.228617 21C0.229304 21 0.22999 21 0.230677 21C0.231364 21 0.232051 21 0.232738 21C0.233425 21 0.234112 21 0.234799 21C0.235486 21 0.236173 21 0.23686 21C0.237547 21 0.238234 21 0.238922 21C0.239609 21 0.240296 21 0.240983 21C0.241671 21 0.242358 21 0.243045 21C0.243733 21 0.24442 21 0.245108 21C0.245795 21 0.246483 21 0.24717 21C0.247858 21 0.248545 21 0.249233 21C0.249921 21 0.250608 21 0.251296 21C0.251984 21 0.252672 21 0.25336 21C0.254047 21 0.254735 21 0.255423 21C0.256111 21 0.256799 21 0.257487 21C0.258175 21 0.258863 21 0.259551 21C0.260239 21 0.260927 21 0.261615 21C0.262304 21 0.262992 21 0.26368 21C0.264368 21 0.265057 21 0.265745 21C0.266433 21 0.267122 21 0.26781 21C0.268498 21 0.269187 21 0.269875 21C0.270564 21 0.271252 21 0.271941 21C0.27263 21 0.273318 21 0.274007 21C0.274695 21 0.275384 21 0.276073 21C0.276762 21 0.27745 21 0.278139 21C0.278828 21 0.279517 21 0.280206 21C0.280895 21 0.281584 21 0.282273 21C0.282962 21 0.283651 21 0.28434 21C0.285029 21 0.285718 21 0.286407 21C0.287096 21 0.287785 21 0.288474 21C0.289164 21 0.289853 21 0.290542 21C0.291231 21 0.291921 21 0.29261 21C0.293299 21 0.293989 21 0.294678 21C0.295368 21 0.296057 21 0.296747 21C0.297436 21 0.298126 21 0.298815 21C0.299505 21 0.300194 21 0.300884 21C0.301574 21 0.302263 21 0.302953 21C0.303643 21 0.304333 21 0.305022 21C0.305712 21 0.306402 21 0.307092 21C0.307782 21 0.308472 21 0.309162 21C0.309852 21 0.310542 21 0.311232 21C0.311922 21 0.312612 21 0.313302 21C0.313992 21 0.314682 21 0.315372 21C0.316062 21 0.316752 21 0.317443 21C0.318133 21 0.318823 21 0.319513 21C0.320204 21 0.320894 21 0.321584 21C0.322275 21 0.322965 21 0.323656 21C0.324346 21 0.325036 21 0.325727 21C0.326417 21 0.327108 21 0.327799 21C0.328489 21 0.32918 21 0.32987 21C0.330561 21 0.331252 21 0.331942 21C0.332633 21 0.333324 21 0.334014 21C0.334705 21 0.335396 21 0.336087 21C0.336778 21 0.337468 21 0.338159 21C0.33885 21 0.339541 21 0.340232 21C0.340923 21 0.341614 21 0.342305 21C0.342996 21 0.343687 21 0.344378 21C0.345069 21 0.34576 21 0.346451 21C0.347143 21 0.347834 21 0.348525 21C0.349216 21 0.349907 21 0.350599 21C0.35129 21 0.351981 21 0.352672 21C0.353364 21 0.354055 21 0.354746 21C0.355438 21 0.356129 21 0.356821 21C0.357512 21 0.358204 21 0.358895 21C0.359587 21 0.360278 21 0.36097 21C0.361661 21 0.362353 21 0.363044 21C0.363736 21 0.364428 21 0.365119 21C0.365811 21 0.366503 21 0.367194 21C0.367886 21 0.368578 21 0.369269 21C0.369961 21 0.370653 21 0.371345 21C0.372037 21 0.372729 21 0.37342 21C0.374112 21 0.374804 21 0.375496 21C0.376188 21 0.37688 21 0.377572 21C0.378264 21 0.378956 21 0.379648 21C0.38034 21 0.381032 21 0.381724 21C0.382416 21 0.383108 21 0.383801 21C0.384493 21 0.385185 21 0.385877 21C0.386569 21 0.387261 21 0.387954 21C0.388646 21 0.389338 21 0.39003 21C0.390723 21 0.391415 21 0.392107 21C0.3928 21 0.393492 21 0.394185 21C0.394877 21 0.395569 21 0.396262 21C0.396954 21 0.397647 21 0.398339 21C0.399032 21 0.399724 21 0.400417 21C0.401109 21 0.401802 21 0.402494 21C0.403187 21 0.40388 21 0.404572 21C0.405265 21 0.405957 21 0.40665 21C0.407343 21 0.408035 21 0.408728 21C0.409421 21 0.410114 21 0.410806 21C0.411499 21 0.412192 21 0.412885 21C0.413577 21 0.41427 21 0.414963 21C0.415656 21 0.416349 21 0.417042 21C0.417735 21 0.418428 21 0.41912 21C0.419813 21 0.420506 21 0.421199 21C0.421892 21 0.422585 21 0.423278 21C0.423971 21 0.424664 21 0.425357 21C0.42605 21 0.426744 21 0.427437 21C0.42813 21 0.428823 21 0.429516 21C0.430209 21 0.430902 21 0.431595 21C0.432289 21 0.432982 21 0.433675 21C0.434368 21 0.435061 21 0.435755 21C0.436448 21 0.437141 21 0.437834 21C0.438528 21 0.439221 21 0.439914 21C0.440608 21 0.441301 21 0.441994 21C0.442688 21 0.443381 21 0.444074 21C0.444768 21 0.445461 21 0.446155 21C0.446848 21 0.447541 21 0.448235 21C0.448928 21 0.449622 21 0.450315 21C0.451009 21 0.451702 21 0.452396 21C0.453089 21 0.453783 21 0.454477 21C0.45517 21 0.455864 21 0.456557 21C0.457251 21 0.457944 21 0.458638 21C0.459332 21 0.460025 21 0.460719 21C0.461413 21 0.462106 21 0.4628 21C0.463494 21 0.464187 21 0.464881 21C0.465575 21 0.466268 21 0.466962 21C0.467656 21 0.46835 21 0.469043 21C0.469737 21 0.470431 21 0.471125 21C0.471819 21 0.472512 21 0.473206 21C0.4739 21 0.474594 21 0.475288 21C0.475982 21 0.476676 21 0.477369 21C0.478063 21 0.478757 21 0.479451 21C0.480145 21 0.480839 21 0.481533 21C0.482227 21 0.482921 21 0.483615 21C0.484309 21 0.485003 21 0.485697 21C0.486391 21 0.487084 21 0.487778 21C0.488473 21 0.489167 21 0.489861 21C0.490555 21 0.491249 21 0.491943 21C0.492637 21 0.493331 21 0.494025 21C0.494719 21 0.495413 21 0.496107 21C0.496801 21 0.497495 21 0.498189 21C0.498883 21 0.499578 21 0.500272 21C0.500966 21 0.50166 21 0.502354 21C0.503048 21 0.503742 21 0.504437 21C0.505131 21 0.505825 21 0.506519 21C0.507213 21 0.507908 21 0.508602 21C0.509296 21 0.50999 21 0.510684 21C0.511379 21 0.512073 21 0.512767 21C0.513461 21 0.514156 21 0.51485 21C0.515544 21 0.516238 21 0.516933 21C0.517627 21 0.518321 21 0.519016 21C0.51971 21 0.520404 21 0.521098 21C0.521793 21 0.522487 21 0.523181 21C0.523876 21 0.52457 21 0.525264 21C0.525959 21 0.526653 21 0.527347 21C0.528042 21 0.528736 21 0.52943 21C0.530125 21 0.530819 21 0.531514 21C0.532208 21 0.532902 21 0.533597 21C0.534291 21 0.534985 21 0.53568 21C0.536374 21 0.537069 21 0.537763 21C0.538457 21 0.539152 21 0.539846 21C0.540541 21 0.541235 21 0.54193 21C0.542624 21 0.543318 21 0.544013 21C0.544707 21 0.545402 21 0.546096 21C0.546791 21 0.547485 21 0.548179 21C0.548874 21 0.549568 21 0.550263 21C0.550957 21 0.551652 21 0.552346 21C0.553041 21 0.553735 21 0.55443 21C0.555124 21 0.555819 21 0.556513 21C0.557207 21 0.557902 21 0.558596 21C0.559291 21 0.559985 21 0.56068 21C0.561374 21 0.562069 21 0.562763 21C0.563458 21 0.564152 21 0.564847 21C0.565541 21 0.566236 21 0.56693 21C0.567625 21 0.568319 21 0.569014 21C0.569708 21 0.570403 21 0.571097 21C0.571792 21 0.572486 21 0.573181 21C0.573875 21 0.57457 21 0.575264 21C0.575959 21 0.576653 21 0.577348 21C0.578042 21 0.578737 21 0.579431 21C0.580126 21 0.58082 21 0.581515 21C0.582209 21 0.582904 21 0.583598 21C0.584293 21 0.584987 21 0.585682 21C0.586376 21 0.587071 21 0.587765 21C0.58846 21 0.589154 21 0.589849 21C0.590543 21 0.591237 21 0.591932 21C0.592626 21 0.593321 21 0.594015 21C0.59471 21 0.595404 21 0.596099 21C0.596793 21 0.597488 21 0.598182 21C0.598877 21 0.599571 21 0.600266 21C0.60096 21 0.601655 21 0.602349 21C0.603043 21 0.603738 21 0.604432 21C0.605127 21 0.605821 21 0.606516 21C0.60721 21 0.607905 21 0.608599 21C0.609293 21 0.609988 21 0.610682 21C0.611377 21 0.612071 21 0.612765 21C0.61346 21 0.614154 21 0.614849 21C0.615543 21 0.616237 21 0.616932 21C0.617626 21 0.618321 21 0.619015 21C0.619709 21 0.620404 21 0.621098 21C0.621792 21 0.622487 21 0.623181 21C0.623876 21 0.62457 21 0.625264 21C0.625959 21 0.626653 21 0.627347 21C0.628042 21 0.628736 21 0.62943 21C0.630125 21 0.630819 21 0.631513 21C0.632207 21 0.632902 21 0.633596 21C0.63429 21 0.634985 21 0.635679 21C0.636373 21 0.637067 21 0.637762 21C0.638456 21 0.63915 21 0.639844 21C0.640539 21 0.641233 21 0.641927 21C0.642621 21 0.643315 21 0.64401 21C0.644704 21 0.645398 21 0.646092 21C0.646786 21 0.647481 21 0.648175 21C0.648869 21 0.649563 21 0.650257 21C0.650951 21 0.651645 21 0.65234 21C0.653034 21 0.653728 21 0.654422 21C0.655116 21 0.65581 21 0.656504 21C0.657198 21 0.657892 21 0.658586 21C0.65928 21 0.659975 21 0.660669 21C0.661363 21 0.662057 21 0.662751 21C0.663445 21 0.664139 21 0.664833 21C0.665527 21 0.666221 21 0.666915 21C0.667609 21 0.668303 21 0.668996 21C0.66969 21 0.670384 21 0.671078 21C0.671772 21 0.672466 21 0.67316 21C0.673854 21 0.674548 21 0.675242 21C0.675935 21 0.676629 21 0.677323 21C0.678017 21 0.678711 21 0.679405 21C0.680098 21 0.680792 21 0.681486 21C0.68218 21 0.682874 21 0.683567 21C0.684261 21 0.684955 21 0.685649 21C0.686342 21 0.687036 21 0.68773 21C0.688423 21 0.689117 21 0.689811 21C0.690504 21 0.691198 21 0.691892 21C0.692585 21 0.693279 21 0.693973 21C0.694666 21 0.69536 21 0.696053 21C0.696747 21 0.69744 21 0.698134 21C0.698828 21 0.699521 21 0.700215 21C0.700908 21 0.701602 21 0.702295 21C0.702989 21 0.703682 21 0.704375 21C0.705069 21 0.705762 21 0.706456 21C0.707149 21 0.707843 21 0.708536 21C0.709229 21 0.709923 21 0.710616 21C0.711309 21 0.712003 21 0.712696 21C0.713389 21 0.714083 21 0.714776 21C0.715469 21 0.716162 21 0.716856 21C0.717549 21 0.718242 21 0.718935 21C0.719628 21 0.720321 21 0.721015 21C0.721708 21 0.722401 21 0.723094 21C0.723787 21 0.72448 21 0.725173 21C0.725866 21 0.726559 21 0.727252 21C0.727946 21 0.728639 21 0.729332 21C0.730025 21 0.730717 21 0.73141 21C0.732103 21 0.732796 21 0.733489 21C0.734182 21 0.734875 21 0.735568 21C0.736261 21 0.736954 21 0.737646 21C0.738339 21 0.739032 21 0.739725 21C0.740418 21 0.74111 21 0.741803 21C0.742496 21 0.743189 21 0.743881 21C0.744574 21 0.745267 21 0.745959 21C0.746652 21 0.747345 21 0.748037 21C0.74873 21 0.749422 21 0.750115 21C0.750807 21 0.7515 21 0.752192 21C0.752885 21 0.753577 21 0.75427 21C0.754962 21 0.755655 21 0.756347 21C0.75704 21 0.757732 21 0.758424 21C0.759117 21 0.759809 21 0.760501 21C0.761194 21 0.761886 21 0.762578 21C0.763271 21 0.763963 21 0.764655 21C0.765347 21 0.766039 21 0.766732 21C0.767424 21 0.768116 21 0.768808 21C0.7695 21 0.770192 21 0.770884 21C0.771576 21 0.772268 21 0.77296 21C0.773652 21 0.774344 21 0.775036 21C0.775728 21 0.77642 21 0.777112 21C0.777804 21 0.778496 21 0.779188 21C0.77988 21 0.780572 21 0.781263 21C0.781955 21 0.782647 21 0.783339 21C0.78403 21 0.784722 21 0.785414 21C0.786105 21 0.786797 21 0.787489 21C0.78818 21 0.788872 21 0.789564 21C0.790255 21 0.790947 21 0.791638 21C0.79233 21 0.793021 21 0.793713 21C0.794404 21 0.795096 21 0.795787 21C0.796478 21 0.79717 21 0.797861 21C0.798552 21 0.799244 21 0.799935 21C0.800626 21 0.801318 21 0.802009 21C0.8027 21 0.803391 21 0.804082 21C0.804774 21 0.805465 21 0.806156 21C0.806847 21 0.807538 21 0.808229 21C0.80892 21 0.809611 21 0.810302 21C0.810993 21 0.811684 21 0.812375 21C0.813066 21 0.813757 21 0.814448 21C0.815138 21 0.815829 21 0.81652 21C0.817211 21 0.817902 21 0.818592 21C0.819283 21 0.819974 21 0.820664 21C0.821355 21 0.822046 21 0.822736 21C0.823427 21 0.824117 21 0.824808 21C0.825498 21 0.826189 21 0.826879 21C0.82757 21 0.82826 21 0.828951 21C0.829641 21 0.830331 21 0.831022 21C0.831712 21 0.832402 21 0.833093 21C0.833783 21 0.834473 21 0.835163 21C0.835854 21 0.836544 21 0.837234 21C0.837924 21 0.838614 21 0.839304 21C0.839994 21 0.840684 21 0.841374 21C0.842064 21 0.842754 21 0.843444 21C0.844134 21 0.844824 21 0.845514 21C0.846203 21 0.846893 21 0.847583 21C0.848273 21 0.848962 21 0.849652 21C0.850342 21 0.851031 21 0.851721 21C0.852411 21 0.8531 21 0.85379 21C0.854479 21 0.855169 21 0.855858 21C0.856548 21 0.857237 21 0.857927 21C0.858616 21 0.859305 21 0.859995 21C0.860684 21 0.861373 21 0.862063 21C0.862752 21 0.863441 21 0.86413 21C0.864819 21 0.865509 21 0.866198 21C0.866887 21 0.867576 21 0.868265 21C0.868954 21 0.869643 21 0.870332 21C0.871021 21 0.87171 21 0.872398 21C0.873087 21 0.873776 21 0.874465 21C0.875154 21 0.875842 21 0.876531 21C0.87722 21 0.877908 21 0.878597 21C0.879286 21 0.879974 21 0.880663 21C0.881351 21 0.88204 21 0.882728 21C0.883417 21 0.884105 21 0.884794 21C0.885482 21 0.88617 21 0.886859 21C0.887547 21 0.888235 21 0.888923 21C0.889611 21 0.8903 21 0.890988 21C0.891676 21 0.892364 21 0.893052 21C0.89374 21 0.894428 21 0.895116 21C0.895804 21 0.896492 21 0.89718 21C0.897868 21 0.898555 21 0.899243 21C0.899931 21 0.900619 21 0.901306 21C0.901994 21 0.902682 21 0.903369 21C0.904057 21 0.904745 21 0.905432 21C0.90612 21 0.906807 21 0.907495 21C0.908182 21 0.908869 21 0.909557 21C0.910244 21 0.910931 21 0.911619 21C0.912306 21 0.912993 21 0.91368 21C0.914367 21 0.915055 21 0.915742 21C0.916429 21 0.917116 21 0.917803 21C0.91849 21 0.919177 21 0.919864 21C0.92055 21 0.921237 21 0.921924 21C0.922611 21 0.923298 21 0.923984 21C0.924671 21 0.925358 21 0.926044 21C0.926731 21 0.927418 21 0.928104 21C0.928791 21 0.929477 21 0.930163 21C0.93085 21 0.931536 21 0.932223 21C0.932909 21 0.933595 21 0.934281 21C0.934968 21 0.935654 21 0.93634 21C0.937026 21 0.937712 21 0.938398 21C0.939084 21 0.93977 21 0.940456 21C0.941142 21 0.941828 21 0.942514 21C0.9432 21 0.943886 21 0.944571 21C0.945257 21 0.945943 21 0.946629 21C0.947314 21 0.948 21 0.948685 21C0.949371 21 0.950056 21 0.950742 21C0.951427 21 0.952113 21 0.952798 21C0.953483 21 0.954169 21 0.954854 21C0.955539 21 0.956224 21 0.95691 21C0.957595 21 0.95828 21 0.958965 21C0.95965 21 0.960335 21 0.96102 21C0.961705 21 0.96239 21 0.963075 21C0.963759 21 0.964444 21 0.965129 21C0.965814 21 0.966498 21 0.967183 21C0.967868 21 0.968552 21 0.969237 21C0.969921 21 0.970606 21 0.97129 21C0.971975 21 0.972659 21 0.973343 21C0.974028 21 0.974712 21 0.975396 21C0.97608 21 0.976765 21 0.977449 21C0.978133 21 0.978817 21 0.979501 21C0.980185 21 0.980869 21 0.981553 21C0.982237 21 0.98292 21 0.983604 21C0.984288 21 0.984972 21 0.985655 21C0.986339 21 0.987023 21 0.987706 21C0.98839 21 0.989073 21 0.989757 21C0.99044 21 0.991124 21 0.991807 21C0.99249 21 0.993174 21 0.993857 21C0.99454 21 0.995223 21 0.995906 21C0.996589 21 0.997272 21 0.997955 21C0.998638 21 0.999321 21 1 21C1.00069 21 1.00137 21 1.00205 21C1.00274 21 1.00342 21 1.0041 21C1.00478 21 1.00547 21 1.00615 21C1.00683 21 1.00751 21 1.0082 21C1.00888 21 1.00956 21 1.01024 21C1.01093 21 1.01161 21 1.01229 21C1.01297 21 1.01365 21 1.01434 21C1.01502 21 1.0157 21 1.01638 21C1.01706 21 1.01775 21 1.01843 21C1.01911 21 1.01979 21 1.02047 21C1.02116 21 1.02184 21 1.02252 21C1.0232 21 1.02388 21 1.02456 21C1.02525 21 1.02593 21 1.02661 21C1.02729 21 1.02797 21 1.02865 21C1.02933 21 1.03001 21 1.0307 21C1.03138 21 1.03206 21 1.03274 21C1.03342 21 1.0341 21 1.03478 21C1.03546 21 1.03614 21 1.03682 21C1.0375 21 1.03819 21 1.03887 21C1.03955 21 1.04023 21 1.04091 21C1.04159 21 1.04227 21 1.04295 21C1.04363 21 1.04431 21 1.04499 21C1.04567 21 1.04635 21 1.04703 21C1.04771 21 1.04839 21 1.04907 21C1.04975 21 1.05043 21 1.05111 21C1.05179 21 1.05247 21 1.05315 21C1.05383 21 1.05451 21 1.05519 21C1.05587 21 1.05655 21 1.05723 21V20V19C1.05655 19 1.05587 19 1.05519 19C1.05451 19 1.05383 19 1.05315 19C1.05247 19 1.05179 19 1.05111 19C1.05043 19 1.04975 19 1.04907 19C1.04839 19 1.04771 19 1.04703 19C1.04635 19 1.04567 19 1.04499 19C1.04431 19 1.04363 19 1.04295 19C1.04227 19 1.04159 19 1.04091 19C1.04023 19 1.03955 19 1.03887 19C1.03819 19 1.0375 19 1.03682 19C1.03614 19 1.03546 19 1.03478 19C1.0341 19 1.03342 19 1.03274 19C1.03206 19 1.03138 19 1.0307 19C1.03001 19 1.02933 19 1.02865 19C1.02797 19 1.02729 19 1.02661 19C1.02593 19 1.02525 19 1.02456 19C1.02388 19 1.0232 19 1.02252 19C1.02184 19 1.02116 19 1.02047 19C1.01979 19 1.01911 19 1.01843 19C1.01775 19 1.01706 19 1.01638 19C1.0157 19 1.01502 19 1.01434 19C1.01365 19 1.01297 19 1.01229 19C1.01161 19 1.01093 19 1.01024 19C1.00956 19 1.00888 19 1.0082 19C1.00751 19 1.00683 19 1.00615 19C1.00547 19 1.00478 19 1.0041 19C1.00342 19 1.00274 19 1.00205 19C1.00137 19 1.00069 19 1 19C0.999321 19 0.998638 19 0.997955 19C0.997272 19 0.996589 19 0.995906 19C0.995223 19 0.99454 19 0.993857 19C0.993174 19 0.99249 19 0.991807 19C0.991124 19 0.99044 19 0.989757 19C0.989073 19 0.98839 19 0.987706 19C0.987023 19 0.986339 19 0.985655 19C0.984972 19 0.984288 19 0.983604 19C0.98292 19 0.982237 19 0.981553 19C0.980869 19 0.980185 19 0.979501 19C0.978817 19 0.978133 19 0.977449 19C0.976765 19 0.97608 19 0.975396 19C0.974712 19 0.974028 19 0.973343 19C0.972659 19 0.971975 19 0.97129 19C0.970606 19 0.969921 19 0.969237 19C0.968552 19 0.967868 19 0.967183 19C0.966498 19 0.965814 19 0.965129 19C0.964444 19 0.963759 19 0.963075 19C0.96239 19 0.961705 19 0.96102 19C0.960335 19 0.95965 19 0.958965 19C0.95828 19 0.957595 19 0.95691 19C0.956224 19 0.955539 19 0.954854 19C0.954169 19 0.953483 19 0.952798 19C0.952113 19 0.951427 19 0.950742 19C0.950056 19 0.949371 19 0.948685 19C0.948 19 0.947314 19 0.946629 19C0.945943 19 0.945257 19 0.944571 19C0.943886 19 0.9432 19 0.942514 19C0.941828 19 0.941142 19 0.940456 19C0.93977 19 0.939084 19 0.938398 19C0.937712 19 0.937026 19 0.93634 19C0.935654 19 0.934968 19 0.934281 19C0.933595 19 0.932909 19 0.932223 19C0.931536 19 0.93085 19 0.930163 19C0.929477 19 0.928791 19 0.928104 19C0.927418 19 0.926731 19 0.926044 19C0.925358 19 0.924671 19 0.923984 19C0.923298 19 0.922611 19 0.921924 19C0.921237 19 0.92055 19 0.919864 19C0.919177 19 0.91849 19 0.917803 19C0.917116 19 0.916429 19 0.915742 19C0.915055 19 0.914367 19 0.91368 19C0.912993 19 0.912306 19 0.911619 19C0.910931 19 0.910244 19 0.909557 19C0.908869 19 0.908182 19 0.907495 19C0.906807 19 0.90612 19 0.905432 19C0.904745 19 0.904057 19 0.903369 19C0.902682 19 0.901994 19 0.901306 19C0.900619 19 0.899931 19 0.899243 19C0.898555 19 0.897868 19 0.89718 19C0.896492 19 0.895804 19 0.895116 19C0.894428 19 0.89374 19 0.893052 19C0.892364 19 0.891676 19 0.890988 19C0.8903 19 0.889611 19 0.888923 19C0.888235 19 0.887547 19 0.886859 19C0.88617 19 0.885482 19 0.884794 19C0.884105 19 0.883417 19 0.882728 19C0.88204 19 0.881351 19 0.880663 19C0.879974 19 0.879286 19 0.878597 19C0.877908 19 0.87722 19 0.876531 19C0.875842 19 0.875154 19 0.874465 19C0.873776 19 0.873087 19 0.872398 19C0.87171 19 0.871021 19 0.870332 19C0.869643 19 0.868954 19 0.868265 19C0.867576 19 0.866887 19 0.866198 19C0.865509 19 0.864819 19 0.86413 19C0.863441 19 0.862752 19 0.862063 19C0.861373 19 0.860684 19 0.859995 19C0.859305 19 0.858616 19 0.857927 19C0.857237 19 0.856548 19 0.855858 19C0.855169 19 0.854479 19 0.85379 19C0.8531 19 0.852411 19 0.851721 19C0.851031 19 0.850342 19 0.849652 19C0.848962 19 0.848273 19 0.847583 19C0.846893 19 0.846203 19 0.845514 19C0.844824 19 0.844134 19 0.843444 19C0.842754 19 0.842064 19 0.841374 19C0.840684 19 0.839994 19 0.839304 19C0.838614 19 0.837924 19 0.837234 19C0.836544 19 0.835854 19 0.835163 19C0.834473 19 0.833783 19 0.833093 19C0.832402 19 0.831712 19 0.831022 19C0.830331 19 0.829641 19 0.828951 19C0.82826 19 0.82757 19 0.826879 19C0.826189 19 0.825498 19 0.824808 19C0.824117 19 0.823427 19 0.822736 19C0.822046 19 0.821355 19 0.820664 19C0.819974 19 0.819283 19 0.818592 19C0.817902 19 0.817211 19 0.81652 19C0.815829 19 0.815138 19 0.814448 19C0.813757 19 0.813066 19 0.812375 19C0.811684 19 0.810993 19 0.810302 19C0.809611 19 0.80892 19 0.808229 19C0.807538 19 0.806847 19 0.806156 19C0.805465 19 0.804774 19 0.804082 19C0.803391 19 0.8027 19 0.802009 19C0.801318 19 0.800626 19 0.799935 19C0.799244 19 0.798552 19 0.797861 19C0.79717 19 0.796478 19 0.795787 19C0.795096 19 0.794404 19 0.793713 19C0.793021 19 0.79233 19 0.791638 19C0.790947 19 0.790255 19 0.789564 19C0.788872 19 0.78818 19 0.787489 19C0.786797 19 0.786105 19 0.785414 19C0.784722 19 0.78403 19 0.783339 19C0.782647 19 0.781955 19 0.781263 19C0.780572 19 0.77988 19 0.779188 19C0.778496 19 0.777804 19 0.777112 19C0.77642 19 0.775728 19 0.775036 19C0.774344 19 0.773652 19 0.77296 19C0.772268 19 0.771576 19 0.770884 19C0.770192 19 0.7695 19 0.768808 19C0.768116 19 0.767424 19 0.766732 19C0.766039 19 0.765347 19 0.764655 19C0.763963 19 0.763271 19 0.762578 19C0.761886 19 0.761194 19 0.760501 19C0.759809 19 0.759117 19 0.758424 19C0.757732 19 0.75704 19 0.756347 19C0.755655 19 0.754962 19 0.75427 19C0.753577 19 0.752885 19 0.752192 19C0.7515 19 0.750807 19 0.750115 19C0.749422 19 0.74873 19 0.748037 19C0.747345 19 0.746652 19 0.745959 19C0.745267 19 0.744574 19 0.743881 19C0.743189 19 0.742496 19 0.741803 19C0.74111 19 0.740418 19 0.739725 19C0.739032 19 0.738339 19 0.737646 19C0.736954 19 0.736261 19 0.735568 19C0.734875 19 0.734182 19 0.733489 19C0.732796 19 0.732103 19 0.73141 19C0.730717 19 0.730025 19 0.729332 19C0.728639 19 0.727946 19 0.727252 19C0.726559 19 0.725866 19 0.725173 19C0.72448 19 0.723787 19 0.723094 19C0.722401 19 0.721708 19 0.721015 19C0.720321 19 0.719628 19 0.718935 19C0.718242 19 0.717549 19 0.716856 19C0.716162 19 0.715469 19 0.714776 19C0.714083 19 0.713389 19 0.712696 19C0.712003 19 0.711309 19 0.710616 19C0.709923 19 0.709229 19 0.708536 19C0.707843 19 0.707149 19 0.706456 19C0.705762 19 0.705069 19 0.704375 19C0.703682 19 0.702989 19 0.702295 19C0.701602 19 0.700908 19 0.700215 19C0.699521 19 0.698828 19 0.698134 19C0.69744 19 0.696747 19 0.696053 19C0.69536 19 0.694666 19 0.693973 19C0.693279 19 0.692585 19 0.691892 19C0.691198 19 0.690504 19 0.689811 19C0.689117 19 0.688423 19 0.68773 19C0.687036 19 0.686342 19 0.685649 19C0.684955 19 0.684261 19 0.683567 19C0.682874 19 0.68218 19 0.681486 19C0.680792 19 0.680098 19 0.679405 19C0.678711 19 0.678017 19 0.677323 19C0.676629 19 0.675935 19 0.675242 19C0.674548 19 0.673854 19 0.67316 19C0.672466 19 0.671772 19 0.671078 19C0.670384 19 0.66969 19 0.668996 19C0.668303 19 0.667609 19 0.666915 19C0.666221 19 0.665527 19 0.664833 19C0.664139 19 0.663445 19 0.662751 19C0.662057 19 0.661363 19 0.660669 19C0.659975 19 0.65928 19 0.658586 19C0.657892 19 0.657198 19 0.656504 19C0.65581 19 0.655116 19 0.654422 19C0.653728 19 0.653034 19 0.65234 19C0.651645 19 0.650951 19 0.650257 19C0.649563 19 0.648869 19 0.648175 19C0.647481 19 0.646786 19 0.646092 19C0.645398 19 0.644704 19 0.64401 19C0.643315 19 0.642621 19 0.641927 19C0.641233 19 0.640539 19 0.639844 19C0.63915 19 0.638456 19 0.637762 19C0.637067 19 0.636373 19 0.635679 19C0.634985 19 0.63429 19 0.633596 19C0.632902 19 0.632207 19 0.631513 19C0.630819 19 0.630125 19 0.62943 19C0.628736 19 0.628042 19 0.627347 19C0.626653 19 0.625959 19 0.625264 19C0.62457 19 0.623876 19 0.623181 19C0.622487 19 0.621792 19 0.621098 19C0.620404 19 0.619709 19 0.619015 19C0.618321 19 0.617626 19 0.616932 19C0.616237 19 0.615543 19 0.614849 19C0.614154 19 0.61346 19 0.612765 19C0.612071 19 0.611377 19 0.610682 19C0.609988 19 0.609293 19 0.608599 19C0.607905 19 0.60721 19 0.606516 19C0.605821 19 0.605127 19 0.604432 19C0.603738 19 0.603043 19 0.602349 19C0.601655 19 0.60096 19 0.600266 19C0.599571 19 0.598877 19 0.598182 19C0.597488 19 0.596793 19 0.596099 19C0.595404 19 0.59471 19 0.594015 19C0.593321 19 0.592626 19 0.591932 19C0.591237 19 0.590543 19 0.589849 19C0.589154 19 0.58846 19 0.587765 19C0.587071 19 0.586376 19 0.585682 19C0.584987 19 0.584293 19 0.583598 19C0.582904 19 0.582209 19 0.581515 19C0.58082 19 0.580126 19 0.579431 19C0.578737 19 0.578042 19 0.577348 19C0.576653 19 0.575959 19 0.575264 19C0.57457 19 0.573875 19 0.573181 19C0.572486 19 0.571792 19 0.571097 19C0.570403 19 0.569708 19 0.569014 19C0.568319 19 0.567625 19 0.56693 19C0.566236 19 0.565541 19 0.564847 19C0.564152 19 0.563458 19 0.562763 19C0.562069 19 0.561374 19 0.56068 19C0.559985 19 0.559291 19 0.558596 19C0.557902 19 0.557207 19 0.556513 19C0.555819 19 0.555124 19 0.55443 19C0.553735 19 0.553041 19 0.552346 19C0.551652 19 0.550957 19 0.550263 19C0.549568 19 0.548874 19 0.548179 19C0.547485 19 0.546791 19 0.546096 19C0.545402 19 0.544707 19 0.544013 19C0.543318 19 0.542624 19 0.54193 19C0.541235 19 0.540541 19 0.539846 19C0.539152 19 0.538457 19 0.537763 19C0.537069 19 0.536374 19 0.53568 19C0.534985 19 0.534291 19 0.533597 19C0.532902 19 0.532208 19 0.531514 19C0.530819 19 0.530125 19 0.52943 19C0.528736 19 0.528042 19 0.527347 19C0.526653 19 0.525959 19 0.525264 19C0.52457 19 0.523876 19 0.523181 19C0.522487 19 0.521793 19 0.521098 19C0.520404 19 0.51971 19 0.519016 19C0.518321 19 0.517627 19 0.516933 19C0.516238 19 0.515544 19 0.51485 19C0.514156 19 0.513461 19 0.512767 19C0.512073 19 0.511379 19 0.510684 19C0.50999 19 0.509296 19 0.508602 19C0.507908 19 0.507213 19 0.506519 19C0.505825 19 0.505131 19 0.504437 19C0.503742 19 0.503048 19 0.502354 19C0.50166 19 0.500966 19 0.500272 19C0.499578 19 0.498883 19 0.498189 19C0.497495 19 0.496801 19 0.496107 19C0.495413 19 0.494719 19 0.494025 19C0.493331 19 0.492637 19 0.491943 19C0.491249 19 0.490555 19 0.489861 19C0.489167 19 0.488473 19 0.487778 19C0.487084 19 0.486391 19 0.485697 19C0.485003 19 0.484309 19 0.483615 19C0.482921 19 0.482227 19 0.481533 19C0.480839 19 0.480145 19 0.479451 19C0.478757 19 0.478063 19 0.477369 19C0.476676 19 0.475982 19 0.475288 19C0.474594 19 0.4739 19 0.473206 19C0.472512 19 0.471819 19 0.471125 19C0.470431 19 0.469737 19 0.469043 19C0.46835 19 0.467656 19 0.466962 19C0.466268 19 0.465575 19 0.464881 19C0.464187 19 0.463494 19 0.4628 19C0.462106 19 0.461413 19 0.460719 19C0.460025 19 0.459332 19 0.458638 19C0.457944 19 0.457251 19 0.456557 19C0.455864 19 0.45517 19 0.454477 19C0.453783 19 0.453089 19 0.452396 19C0.451702 19 0.451009 19 0.450315 19C0.449622 19 0.448928 19 0.448235 19C0.447541 19 0.446848 19 0.446155 19C0.445461 19 0.444768 19 0.444074 19C0.443381 19 0.442688 19 0.441994 19C0.441301 19 0.440608 19 0.439914 19C0.439221 19 0.438528 19 0.437834 19C0.437141 19 0.436448 19 0.435755 19C0.435061 19 0.434368 19 0.433675 19C0.432982 19 0.432289 19 0.431595 19C0.430902 19 0.430209 19 0.429516 19C0.428823 19 0.42813 19 0.427437 19C0.426744 19 0.42605 19 0.425357 19C0.424664 19 0.423971 19 0.423278 19C0.422585 19 0.421892 19 0.421199 19C0.420506 19 0.419813 19 0.41912 19C0.418428 19 0.417735 19 0.417042 19C0.416349 19 0.415656 19 0.414963 19C0.41427 19 0.413577 19 0.412885 19C0.412192 19 0.411499 19 0.410806 19C0.410114 19 0.409421 19 0.408728 19C0.408035 19 0.407343 19 0.40665 19C0.405957 19 0.405265 19 0.404572 19C0.40388 19 0.403187 19 0.402494 19C0.401802 19 0.401109 19 0.400417 19C0.399724 19 0.399032 19 0.398339 19C0.397647 19 0.396954 19 0.396262 19C0.395569 19 0.394877 19 0.394185 19C0.393492 19 0.3928 19 0.392107 19C0.391415 19 0.390723 19 0.39003 19C0.389338 19 0.388646 19 0.387954 19C0.387261 19 0.386569 19 0.385877 19C0.385185 19 0.384493 19 0.383801 19C0.383108 19 0.382416 19 0.381724 19C0.381032 19 0.38034 19 0.379648 19C0.378956 19 0.378264 19 0.377572 19C0.37688 19 0.376188 19 0.375496 19C0.374804 19 0.374112 19 0.37342 19C0.372729 19 0.372037 19 0.371345 19C0.370653 19 0.369961 19 0.369269 19C0.368578 19 0.367886 19 0.367194 19C0.366503 19 0.365811 19 0.365119 19C0.364428 19 0.363736 19 0.363044 19C0.362353 19 0.361661 19 0.36097 19C0.360278 19 0.359587 19 0.358895 19C0.358204 19 0.357512 19 0.356821 19C0.356129 19 0.355438 19 0.354746 19C0.354055 19 0.353364 19 0.352672 19C0.351981 19 0.35129 19 0.350599 19C0.349907 19 0.349216 19 0.348525 19C0.347834 19 0.347143 19 0.346451 19C0.34576 19 0.345069 19 0.344378 19C0.343687 19 0.342996 19 0.342305 19C0.341614 19 0.340923 19 0.340232 19C0.339541 19 0.33885 19 0.338159 19C0.337468 19 0.336778 19 0.336087 19C0.335396 19 0.334705 19 0.334014 19C0.333324 19 0.332633 19 0.331942 19C0.331252 19 0.330561 19 0.32987 19C0.32918 19 0.328489 19 0.327799 19C0.327108 19 0.326417 19 0.325727 19C0.325036 19 0.324346 19 0.323656 19C0.322965 19 0.322275 19 0.321584 19C0.320894 19 0.320204 19 0.319513 19C0.318823 19 0.318133 19 0.317443 19C0.316752 19 0.316062 19 0.315372 19C0.314682 19 0.313992 19 0.313302 19C0.312612 19 0.311922 19 0.311232 19C0.310542 19 0.309852 19 0.309162 19C0.308472 19 0.307782 19 0.307092 19C0.306402 19 0.305712 19 0.305022 19C0.304333 19 0.303643 19 0.302953 19C0.302263 19 0.301574 19 0.300884 19C0.300194 19 0.299505 19 0.298815 19C0.298126 19 0.297436 19 0.296747 19C0.296057 19 0.295368 19 0.294678 19C0.293989 19 0.293299 19 0.29261 19C0.291921 19 0.291231 19 0.290542 19C0.289853 19 0.289164 19 0.288474 19C0.287785 19 0.287096 19 0.286407 19C0.285718 19 0.285029 19 0.28434 19C0.283651 19 0.282962 19 0.282273 19C0.281584 19 0.280895 19 0.280206 19C0.279517 19 0.278828 19 0.278139 19C0.27745 19 0.276762 19 0.276073 19C0.275384 19 0.274695 19 0.274007 19C0.273318 19 0.27263 19 0.271941 19C0.271252 19 0.270564 19 0.269875 19C0.269187 19 0.268498 19 0.26781 19C0.267122 19 0.266433 19 0.265745 19C0.265057 19 0.264368 19 0.26368 19C0.262992 19 0.262304 19 0.261615 19C0.260927 19 0.260239 19 0.259551 19C0.258863 19 0.258175 19 0.257487 19C0.256799 19 0.256111 19 0.255423 19C0.254735 19 0.254047 19 0.25336 19C0.252672 19 0.251984 19 0.251296 19C0.250608 19 0.249921 19 0.249233 19C0.248545 19 0.247858 19 0.24717 19C0.246483 19 0.245795 19 0.245108 19C0.24442 19 0.243733 19 0.243045 19C0.242358 19 0.241671 19 0.240983 19C0.240296 19 0.239609 19 0.238922 19C0.238234 19 0.237547 19 0.23686 19C0.236173 19 0.235486 19 0.234799 19C0.234112 19 0.233425 19 0.232738 19C0.232051 19 0.231364 19 0.230677 19C0.22999 19 0.229304 19 0.228617 19C0.22793 19 0.227243 19 0.226557 19C0.22587 19 0.225184 19 0.224497 19C0.22381 19 0.223124 19 0.222437 19C0.221751 19 0.221065 19 0.220378 19C0.219692 19 0.219005 19 0.218319 19C0.217633 19 0.216947 19 0.21626 19C0.215574 19 0.214888 19 0.214202 19C0.213516 19 0.21283 19 0.212144 19C0.211458 19 0.210772 19 0.210086 19C0.2094 19 0.208714 19 0.208029 19C0.207343 19 0.206657 19 0.205971 19C0.205286 19 0.2046 19 0.203914 19C0.203229 19 0.202543 19 0.201858 19C0.201172 19 0.200487 19 0.199801 19C0.199116 19 0.198431 19 0.197745 19C0.19706 19 0.196375 19 0.19569 19C0.195004 19 0.194319 19 0.193634 19C0.192949 19 0.192264 19 0.191579 19C0.190894 19 0.190209 19 0.189524 19C0.188839 19 0.188154 19 0.18747 19C0.186785 19 0.1861 19 0.185415 19C0.184731 19 0.184046 19 0.183362 19C0.182677 19 0.181992 19 0.181308 19C0.180623 19 0.179939 19 0.179255 19C0.17857 19 0.177886 19 0.177202 19C0.176517 19 0.175833 19 0.175149 19C0.174465 19 0.173781 19 0.173097 19C0.172413 19 0.171729 19 0.171045 19C0.170361 19 0.169677 19 0.168993 19C0.168309 19 0.167626 19 0.166942 19C0.166258 19 0.165574 19 0.164891 19C0.164207 19 0.163524 19 0.16284 19C0.162157 19 0.161473 19 0.16079 19C0.160106 19 0.159423 19 0.15874 19C0.158056 19 0.157373 19 0.15669 19C0.156007 19 0.155324 19 0.154641 19C0.153958 19 0.153275 19 0.152592 19C0.151909 19 0.151226 19 0.150543 19C0.14986 19 0.149177 19 0.148495 19C0.147812 19 0.147129 19 0.146447 19C0.145764 19 0.145082 19 0.144399 19C0.143717 19 0.143034 19 0.142352 19C0.141669 19 0.140987 19 0.140305 19C0.139623 19 0.13894 19 0.138258 19C0.137576 19 0.136894 19 0.136212 19C0.13553 19 0.134848 19 0.134166 19C0.133484 19 0.132802 19 0.132121 19C0.131439 19 0.130757 19 0.130075 19C0.129394 19 0.128712 19 0.128031 19C0.127349 19 0.126668 19 0.125986 19C0.125305 19 0.124623 19 0.123942 19C0.123261 19 0.122579 19 0.121898 19C0.121217 19 0.120536 19 0.119855 19C0.119174 19 0.118493 19 0.117812 19C0.117131 19 0.11645 19 0.115769 19C0.115088 19 0.114408 19 0.113727 19C0.113046 19 0.112366 19 0.111685 19C0.111005 19 0.110324 19 0.109644 19C0.108963 19 0.108283 19 0.107602 19C0.106922 19 0.106242 19 0.105562 19C0.104881 19 0.104201 19 0.103521 19C0.102841 19 0.102161 19 0.101481 19C0.100801 19 0.100121 19 0.0994415 19C0.0987617 19 0.098082 19 0.0974023 19C0.0967226 19 0.096043 19 0.0953634 19C0.0946838 19 0.0940043 19 0.0933249 19C0.0926455 19 0.0919661 19 0.0912868 19C0.0906075 19 0.0899283 19 0.0892491 19C0.0885699 19 0.0878908 19 0.0872118 19C0.0865327 19 0.0858537 19 0.0851748 19C0.0844959 19 0.0838171 19 0.0831383 19C0.0824595 19 0.0817808 19 0.0811021 19C0.0804235 19 0.0797449 19 0.0790664 19C0.0783879 19 0.0777094 19 0.077031 19C0.0763527 19 0.0756743 19 0.0749961 19C0.0743178 19 0.0736397 19 0.0729616 19C0.0722834 19 0.0716054 19 0.0709274 19C0.0702494 19 0.0695715 19 0.0688937 19C0.0682158 19 0.0675381 19 0.0668604 19C0.0661826 19 0.065505 19 0.0648274 19C0.0641499 19 0.0634724 19 0.0627949 19C0.0621175 19 0.0614401 19 0.0607628 19C0.0600855 19 0.0594083 19 0.0587312 19C0.058054 19 0.0573769 19 0.0566999 19C0.0560229 19 0.0553459 19 0.054669 19C0.0539922 19 0.0533154 19 0.0526386 19C0.0519619 19 0.0512852 19 0.0506086 19C0.049932 19 0.0492555 19 0.048579 19C0.0479026 19 0.0472262 19 0.0465499 19C0.0458735 19 0.0451973 19 0.0445211 19C0.043845 19 0.0431689 19 0.0424928 19C0.0418168 19 0.0411408 19 0.0404649 19C0.0397891 19 0.0391132 19 0.0384375 19C0.0377617 19 0.0370861 19 0.0364105 19C0.0357349 19 0.0350593 19 0.0343839 19C0.0337084 19 0.0330331 19 0.0323577 19C0.0316824 19 0.0310072 19 0.030332 19C0.0296569 19 0.0289818 19 0.0283068 19C0.0276318 19 0.0269568 19 0.0262819 19C0.0256071 19 0.0249323 19 0.0242576 19C0.0235828 19 0.0229082 19 0.0222336 19C0.021559 19 0.0208845 19 0.0202101 19C0.0195357 19 0.0188613 19 0.0181871 19C0.0175128 19 0.0168386 19 0.0161645 19C0.0154903 19 0.0148163 19 0.0141423 19C0.0134683 19 0.0127944 19 0.0121206 19C0.0114468 19 0.010773 19 0.0100994 19C0.00942569 19 0.00875209 19 0.00807857 19C0.00740505 19 0.00673161 19 0.00605824 19C0.00538487 19 0.00471158 19 0.00403836 19C0.00336515 19 0.00269201 19 0.00201895 19C0.00134589 19 0.000672906 19 0 19V20ZM1.05723 20H2.05723V19.4572H1.05723H0.0572281V20H1.05723ZM1.05723 19.4572L2.057 19.436C2.05212 19.2051 2.13914 18.984 2.37675 18.7027C2.64613 18.3839 2.9646 18.1414 3.39135 17.7608L2.72582 17.0145L2.0603 16.2681C1.7676 16.5291 1.23995 16.9492 0.848977 17.412C0.426246 17.9124 0.0386941 18.5919 0.0574519 19.4783L1.05723 19.4572ZM2.72582 17.0145L3.39164 17.7606C4.34898 16.9063 5.76259 15.6722 5.76259 13.2816H4.76259H3.76259C3.76259 14.712 3.01446 15.4166 2.06001 16.2683L2.72582 17.0145ZM4.76259 13.2816V12.2816H3.70537V13.2816V14.2816H4.76259V13.2816ZM3.70537 13.2816H2.70537C2.70537 14.1934 2.28349 14.6137 1.37031 15.43L2.03677 16.1755L2.70322 16.9211C3.58025 16.1371 4.70537 15.1757 4.70537 13.2816H3.70537ZM2.03677 16.1755L1.37072 15.4296C1.04693 15.7188 0.661109 16.0639 0.303857 16.4732L1.05723 17.1308L1.8106 17.7884C2.07485 17.4856 2.37133 17.2174 2.70282 16.9214L2.03677 16.1755ZM1.05723 17.1308H2.05723V16.595H1.05723H0.0572281V17.1308H1.05723ZM1.05723 16.595H2.05723C2.05723 15.6832 2.47911 15.2629 3.39228 14.4466L2.72582 13.7011L2.05937 12.9555C1.18235 13.7395 0.0572281 14.701 0.0572281 16.595H1.05723ZM3.84048 1.10328V2.10328C3.87919 2.10328 3.89846 2.10698 3.90247 2.10785C3.9059 2.1086 3.8963 2.10684 3.87863 2.09785C3.86067 2.08871 3.84068 2.07531 3.82154 2.05779C3.80274 2.04057 3.78919 2.02346 3.78019 2.00973C3.77149 1.99646 3.76791 1.98772 3.76734 1.98626C3.76683 1.98495 3.7685 1.98898 3.7708 1.99946C3.77308 2.00988 3.77537 2.02399 3.77703 2.04168C3.77868 2.05927 3.77948 2.07807 3.77948 2.09729H4.77948H5.77948C5.77948 1.83454 5.74208 1.3545 5.45283 0.913248C5.1154 0.398524 4.54802 0.103278 3.84048 0.103278V1.10328ZM4.77948 2.09729H3.77948C3.77948 2.09727 3.77948 2.09789 3.77945 2.09921C3.77942 2.10053 3.77936 2.10245 3.77925 2.10502C3.77902 2.11029 3.77861 2.11752 3.7779 2.12736C3.77634 2.14881 3.7741 2.17259 3.77053 2.20986L4.76597 2.30525L5.76141 2.40064C5.76721 2.34011 5.77948 2.22068 5.77948 2.09729H4.77948ZM4.76597 2.30525L3.77404 2.17851C3.77522 2.16923 3.78015 2.13463 3.8006 2.08311C3.81924 2.03615 3.8689 1.92929 3.98389 1.8234L4.66126 2.55904L5.33863 3.29468C5.65858 3.00008 5.73475 2.61327 5.75791 2.43199L4.76597 2.30525ZM4.66126 2.55904L4.00183 1.80728C4.09704 1.72376 4.18486 1.68804 4.2245 1.67441C4.26554 1.66031 4.28724 1.65885 4.27785 1.65996C4.2554 1.66261 4.19107 1.6653 4.07271 1.65598C3.83572 1.63731 3.55019 1.58616 3.25 1.5324L3.07373 2.51674L2.89746 3.50109C3.16811 3.54955 3.55981 3.62177 3.91562 3.6498C4.09365 3.66383 4.30461 3.67071 4.51247 3.64615C4.68988 3.62519 5.03131 3.56466 5.3207 3.3108L4.66126 2.55904ZM3.07373 2.51674L3.25106 1.53259C2.80949 1.45303 2.22925 1.34227 1.67281 1.3512L1.68886 2.35107L1.70492 3.35095C2.02669 3.34578 2.39896 3.41126 2.8964 3.50089L3.07373 2.51674ZM1.68886 2.35107L2.48054 2.96201C2.69745 2.68094 2.97484 2.456 3.25017 2.30432C3.53901 2.14519 3.757 2.10328 3.84385 2.10328V1.10328V0.103278C3.31933 0.103278 2.76721 0.286957 2.28508 0.552572C1.78944 0.825635 1.29503 1.2246 0.897184 1.74014L1.68886 2.35107ZM1.06398 4.04653L2.06233 4.10393C2.06549 4.04898 2.07059 4.03617 2.06613 4.0521C2.06324 4.06239 2.05289 4.09703 2.02704 4.14468C2.00103 4.19262 1.95087 4.26922 1.8627 4.34398L1.21598 3.58125L0.569268 2.81851C0.29442 3.05156 0.186561 3.34747 0.140372 3.51223C0.089462 3.69383 0.0726062 3.86784 0.0656325 3.98913L1.06398 4.04653ZM1.21598 3.58125L1.87219 4.33583C1.7265 4.46252 1.60135 4.46835 1.64237 4.46248C1.66527 4.4592 1.72994 4.45504 1.84964 4.46311C2.09117 4.47938 2.38653 4.53128 2.71462 4.59018L2.89133 3.60592L3.06804 2.62166C2.76788 2.56777 2.3573 2.49277 1.98408 2.46763C1.7964 2.45499 1.5765 2.45149 1.35874 2.48269C1.1591 2.51129 0.837195 2.58541 0.559775 2.82667L1.21598 3.58125ZM2.89133 3.60592L2.71453 4.59017C3.10313 4.65997 3.60774 4.75559 4.09608 4.76438L4.11407 3.76454L4.13206 2.7647C3.83677 2.75939 3.5037 2.69991 3.06813 2.62167L2.89133 3.60592ZM4.11407 3.76454L3.32305 3.15275C2.89034 3.71223 2.35378 3.99824 1.96921 3.99824V4.99824V5.99824C3.20596 5.99824 4.26368 5.20564 4.90509 4.37633L4.11407 3.76454ZM1.96921 4.99824V3.99824C1.88163 3.99824 1.8484 3.98833 1.85126 3.98918C1.85896 3.99148 1.90762 4.00831 1.96346 4.06032C2.02116 4.11407 2.04985 4.17125 2.06073 4.20285C2.06922 4.22752 2.06061 4.21783 2.06061 4.15227H1.06061H0.0606059C0.0606059 4.59383 0.171455 5.12432 0.600232 5.52374C1.01395 5.90914 1.53979 5.99824 1.96921 5.99824V4.99824ZM1.06061 4.15227H2.06061C2.06061 4.1522 2.06061 4.15214 2.06061 4.15207C2.06061 4.152 2.06061 4.15193 2.06061 4.15186C2.06061 4.15179 2.06061 4.15172 2.06061 4.15165C2.06061 4.15158 2.06061 4.15152 2.06061 4.15145C2.06061 4.15138 2.06061 4.15131 2.06061 4.15124C2.06061 4.15117 2.06061 4.1511 2.06061 4.15103C2.06061 4.15097 2.06061 4.1509 2.06061 4.15083C2.06061 4.15076 2.06061 4.15069 2.06061 4.15062C2.06061 4.15055 2.06061 4.15048 2.06061 4.15041C2.06061 4.15035 2.06061 4.15028 2.06061 4.15021C2.06061 4.15014 2.06061 4.15007 2.06061 4.15C2.06061 4.14993 2.06061 4.14986 2.06061 4.14979C2.06061 4.14973 2.06061 4.14966 2.06061 4.14959C2.06061 4.14952 2.06061 4.14945 2.06061 4.14938C2.06061 4.14931 2.06061 4.14924 2.06061 4.14918C2.06061 4.14911 2.06061 4.14904 2.06061 4.14897C2.06061 4.1489 2.06061 4.14883 2.06061 4.14876C2.06061 4.14869 2.06061 4.14862 2.06061 4.14856C2.06061 4.14849 2.06061 4.14842 2.06061 4.14835C2.06061 4.14828 2.06061 4.14821 2.06061 4.14814C2.06061 4.14807 2.06061 4.148 2.06061 4.14794C2.06061 4.14787 2.06061 4.1478 2.06061 4.14773C2.06061 4.14766 2.06061 4.14759 2.06061 4.14752C2.06061 4.14745 2.06061 4.14739 2.06061 4.14732C2.06061 4.14725 2.06061 4.14718 2.06061 4.14711C2.06061 4.14704 2.06061 4.14697 2.06061 4.1469C2.06061 4.14683 2.06061 4.14677 2.06061 4.1467C2.06061 4.14663 2.06061 4.14656 2.06061 4.14649C2.06061 4.14642 2.06061 4.14635 2.06061 4.14628C2.06061 4.14621 2.06061 4.14615 2.06061 4.14608C2.06061 4.14601 2.06061 4.14594 2.06061 4.14587C2.06061 4.1458 2.06061 4.14573 2.06061 4.14566C2.06061 4.1456 2.06061 4.14553 2.06061 4.14546C2.06061 4.14539 2.06061 4.14532 2.06061 4.14525C2.06061 4.14518 2.06061 4.14511 2.06061 4.14504C2.06061 4.14498 2.06061 4.14491 2.06061 4.14484C2.06061 4.14477 2.06061 4.1447 2.06061 4.14463C2.06061 4.14456 2.06061 4.14449 2.06061 4.14442C2.06061 4.14436 2.06061 4.14429 2.06061 4.14422C2.06061 4.14415 2.06061 4.14408 2.06061 4.14401C2.06061 4.14394 2.06061 4.14387 2.06061 4.14381C2.06061 4.14374 2.06061 4.14367 2.06061 4.1436C2.06061 4.14353 2.06061 4.14346 2.06061 4.14339C2.06061 4.14332 2.06061 4.14325 2.06061 4.14319C2.06061 4.14312 2.06061 4.14305 2.06061 4.14298C2.06061 4.14291 2.06061 4.14284 2.06061 4.14277C2.06061 4.1427 2.06061 4.14263 2.06061 4.14257C2.06061 4.1425 2.06061 4.14243 2.06061 4.14236C2.06061 4.14229 2.06061 4.14222 2.06061 4.14215C2.06061 4.14208 2.06061 4.14202 2.06061 4.14195C2.06061 4.14188 2.06061 4.14181 2.06061 4.14174C2.06061 4.14167 2.06061 4.1416 2.06061 4.14153C2.06061 4.14146 2.06061 4.1414 2.06061 4.14133C2.06061 4.14126 2.06061 4.14119 2.06061 4.14112C2.06061 4.14105 2.06061 4.14098 2.06061 4.14091C2.06061 4.14084 2.06061 4.14078 2.06061 4.14071C2.06061 4.14064 2.06061 4.14057 2.06061 4.1405C2.06061 4.14043 2.06061 4.14036 2.06061 4.14029C2.06061 4.14023 2.06061 4.14016 2.06061 4.14009C2.06061 4.14002 2.06061 4.13995 2.06061 4.13988C2.06061 4.13981 2.06061 4.13974 2.06061 4.13967C2.06061 4.13961 2.06061 4.13954 2.06061 4.13947C2.06061 4.1394 2.06061 4.13933 2.06061 4.13926C2.06061 4.13919 2.06061 4.13912 2.06061 4.13906C2.06061 4.13899 2.06061 4.13892 2.06061 4.13885C2.06061 4.13878 2.06061 4.13871 2.06061 4.13864C2.06061 4.13857 2.06061 4.1385 2.06061 4.13844C2.06061 4.13837 2.06061 4.1383 2.06061 4.13823C2.06061 4.13816 2.06061 4.13809 2.06061 4.13802C2.06061 4.13795 2.06061 4.13788 2.06061 4.13782C2.06061 4.13775 2.06061 4.13768 2.06061 4.13761C2.06061 4.13754 2.06061 4.13747 2.06061 4.1374C2.06061 4.13733 2.06061 4.13727 2.06061 4.1372C2.06061 4.13713 2.06061 4.13706 2.06061 4.13699C2.06061 4.13692 2.06061 4.13685 2.06061 4.13678C2.06061 4.13671 2.06061 4.13665 2.06061 4.13658C2.06061 4.13651 2.06061 4.13644 2.06061 4.13637C2.06061 4.1363 2.06061 4.13623 2.06061 4.13616C2.06061 4.13609 2.06061 4.13603 2.06061 4.13596C2.06061 4.13589 2.06061 4.13582 2.06061 4.13575C2.06061 4.13568 2.06061 4.13561 2.06061 4.13554C2.06061 4.13548 2.06061 4.13541 2.06061 4.13534C2.06061 4.13527 2.06061 4.1352 2.06061 4.13513C2.06061 4.13506 2.06061 4.13499 2.06061 4.13492C2.06061 4.13486 2.06061 4.13479 2.06061 4.13472C2.06061 4.13465 2.06061 4.13458 2.06061 4.13451C2.06061 4.13444 2.06061 4.13437 2.06061 4.1343C2.06061 4.13424 2.06061 4.13417 2.06061 4.1341C2.06061 4.13403 2.06061 4.13396 2.06061 4.13389C2.06061 4.13382 2.06061 4.13375 2.06061 4.13369C2.06061 4.13362 2.06061 4.13355 2.06061 4.13348C2.06061 4.13341 2.06061 4.13334 2.06061 4.13327C2.06061 4.1332 2.06061 4.13313 2.06061 4.13307C2.06061 4.133 2.06061 4.13293 2.06061 4.13286C2.06061 4.13279 2.06061 4.13272 2.06061 4.13265C2.06061 4.13258 2.06061 4.13251 2.06061 4.13245C2.06061 4.13238 2.06061 4.13231 2.06061 4.13224C2.06061 4.13217 2.06061 4.1321 2.06061 4.13203C2.06061 4.13196 2.06061 4.1319 2.06061 4.13183C2.06061 4.13176 2.06061 4.13169 2.06061 4.13162C2.06061 4.13155 2.06061 4.13148 2.06061 4.13141C2.06061 4.13134 2.06061 4.13128 2.06061 4.13121C2.06061 4.13114 2.06061 4.13107 2.06061 4.131C2.06061 4.13093 2.06061 4.13086 2.06061 4.13079C2.06061 4.13072 2.06061 4.13066 2.06061 4.13059C2.06061 4.13052 2.06061 4.13045 2.06061 4.13038C2.06061 4.13031 2.06061 4.13024 2.06061 4.13017C2.06061 4.13011 2.06061 4.13004 2.06061 4.12997C2.06061 4.1299 2.06061 4.12983 2.06061 4.12976C2.06061 4.12969 2.06061 4.12962 2.06061 4.12955C2.06061 4.12949 2.06061 4.12942 2.06061 4.12935C2.06061 4.12928 2.06061 4.12921 2.06061 4.12914C2.06061 4.12907 2.06061 4.129 2.06061 4.12893C2.06061 4.12887 2.06061 4.1288 2.06061 4.12873C2.06061 4.12866 2.06061 4.12859 2.06061 4.12852C2.06061 4.12845 2.06061 4.12838 2.06061 4.12832C2.06061 4.12825 2.06061 4.12818 2.06061 4.12811C2.06061 4.12804 2.06061 4.12797 2.06061 4.1279C2.06061 4.12783 2.06061 4.12776 2.06061 4.1277C2.06061 4.12763 2.06061 4.12756 2.06061 4.12749C2.06061 4.12742 2.06061 4.12735 2.06061 4.12728C2.06061 4.12721 2.06061 4.12714 2.06061 4.12708C2.06061 4.12701 2.06061 4.12694 2.06061 4.12687C2.06061 4.1268 2.06061 4.12673 2.06061 4.12666C2.06061 4.12659 2.06061 4.12653 2.06061 4.12646C2.06061 4.12639 2.06061 4.12632 2.06061 4.12625C2.06061 4.12618 2.06061 4.12611 2.06061 4.12604C2.06061 4.12597 2.06061 4.12591 2.06061 4.12584C2.06061 4.12577 2.06061 4.1257 2.06061 4.12563C2.06061 4.12556 2.06061 4.12549 2.06061 4.12542C2.06061 4.12535 2.06061 4.12529 2.06061 4.12522C2.06061 4.12515 2.06061 4.12508 2.06061 4.12501C2.06061 4.12494 2.06061 4.12487 2.06061 4.1248C2.06061 4.12474 2.06061 4.12467 2.06061 4.1246C2.06061 4.12453 2.06061 4.12446 2.06061 4.12439C2.06061 4.12432 2.06061 4.12425 2.06061 4.12418C2.06061 4.12412 2.06061 4.12405 2.06061 4.12398C2.06061 4.12391 2.06061 4.12384 2.06061 4.12377C2.06061 4.1237 2.06061 4.12363 2.06061 4.12356C2.06061 4.1235 2.06061 4.12343 2.06061 4.12336C2.06061 4.12329 2.06061 4.12322 2.06061 4.12315C2.06061 4.12308 2.06061 4.12301 2.06061 4.12295C2.06061 4.12288 2.06061 4.12281 2.06061 4.12274C2.06061 4.12267 2.06061 4.1226 2.06061 4.12253C2.06061 4.12246 2.06061 4.12239 2.06061 4.12233C2.06061 4.12226 2.06061 4.12219 2.06061 4.12212C2.06061 4.12205 2.06061 4.12198 2.06061 4.12191C2.06061 4.12184 2.06061 4.12177 2.06061 4.12171C2.06061 4.12164 2.06061 4.12157 2.06061 4.1215C2.06061 4.12143 2.06061 4.12136 2.06061 4.12129C2.06061 4.12122 2.06061 4.12116 2.06061 4.12109C2.06061 4.12102 2.06061 4.12095 2.06061 4.12088C2.06061 4.12081 2.06061 4.12074 2.06061 4.12067C2.06061 4.1206 2.06061 4.12054 2.06061 4.12047C2.06061 4.1204 2.06061 4.12033 2.06061 4.12026C2.06061 4.12019 2.06061 4.12012 2.06061 4.12005C2.06061 4.11999 2.06061 4.11992 2.06061 4.11985C2.06061 4.11978 2.06061 4.11971 2.06061 4.11964C2.06061 4.11957 2.06061 4.1195 2.06061 4.11943C2.06061 4.11937 2.06061 4.1193 2.06061 4.11923C2.06061 4.11916 2.06061 4.11909 2.06061 4.11902C2.06061 4.11895 2.06061 4.11888 2.06061 4.11881C2.06061 4.11875 2.06061 4.11868 2.06061 4.11861C2.06061 4.11854 2.06061 4.11847 2.06061 4.1184C2.06061 4.11833 2.06061 4.11826 2.06061 4.1182C2.06061 4.11813 2.06061 4.11806 2.06061 4.11799C2.06061 4.11792 2.06061 4.11785 2.06061 4.11778C2.06061 4.11771 2.06061 4.11764 2.06061 4.11758C2.06061 4.11751 2.06061 4.11744 2.06061 4.11737C2.06061 4.1173 2.06061 4.11723 2.06061 4.11716C2.06061 4.11709 2.06061 4.11702 2.06061 4.11696C2.06061 4.11689 2.06061 4.11682 2.06061 4.11675C2.06061 4.11668 2.06061 4.11661 2.06061 4.11654C2.06061 4.11647 2.06061 4.11641 2.06061 4.11634C2.06061 4.11627 2.06061 4.1162 2.06061 4.11613C2.06061 4.11606 2.06061 4.11599 2.06061 4.11592C2.06061 4.11585 2.06061 4.11579 2.06061 4.11572C2.06061 4.11565 2.06061 4.11558 2.06061 4.11551C2.06061 4.11544 2.06061 4.11537 2.06061 4.1153C2.06061 4.11523 2.06061 4.11517 2.06061 4.1151C2.06061 4.11503 2.06061 4.11496 2.06061 4.11489C2.06061 4.11482 2.06061 4.11475 2.06061 4.11468C2.06061 4.11462 2.06061 4.11455 2.06061 4.11448C2.06061 4.11441 2.06061 4.11434 2.06061 4.11427C2.06061 4.1142 2.06061 4.11413 2.06061 4.11406C2.06061 4.114 2.06061 4.11393 2.06061 4.11386C2.06061 4.11379 2.06061 4.11372 2.06061 4.11365C2.06061 4.11358 2.06061 4.11351 2.06061 4.11344C2.06061 4.11338 2.06061 4.11331 2.06061 4.11324C2.06061 4.11317 2.06061 4.1131 2.06061 4.11303C2.06061 4.11296 2.06061 4.11289 2.06061 4.11283C2.06061 4.11276 2.06061 4.11269 2.06061 4.11262C2.06061 4.11255 2.06061 4.11248 2.06061 4.11241C2.06061 4.11234 2.06061 4.11227 2.06061 4.11221C2.06061 4.11214 2.06061 4.11207 2.06061 4.112C2.06061 4.11193 2.06061 4.11186 2.06061 4.11179C2.06061 4.11172 2.06061 4.11165 2.06061 4.11159C2.06061 4.11152 2.06061 4.11145 2.06061 4.11138C2.06061 4.11131 2.06061 4.11124 2.06061 4.11117C2.06061 4.1111 2.06061 4.11104 2.06061 4.11097C2.06061 4.1109 2.06061 4.11083 2.06061 4.11076C2.06061 4.11069 2.06061 4.11062 2.06061 4.11055C2.06061 4.11048 2.06061 4.11042 2.06061 4.11035C2.06061 4.11028 2.06061 4.11021 2.06061 4.11014C2.06061 4.11007 2.06061 4.11 2.06061 4.10993C2.06061 4.10986 2.06061 4.1098 2.06061 4.10973C2.06061 4.10966 2.06061 4.10959 2.06061 4.10952C2.06061 4.10945 2.06061 4.10938 2.06061 4.10931C2.06061 4.10925 2.06061 4.10918 2.06061 4.10911C2.06061 4.10904 2.06061 4.10897 2.06061 4.1089C2.06061 4.10883 2.06061 4.10876 2.06061 4.10869C2.06061 4.10863 2.06061 4.10856 2.06061 4.10849C2.06061 4.10842 2.06061 4.10835 2.06061 4.10828C2.06061 4.10821 2.06061 4.10814 2.06061 4.10807C2.06061 4.10801 2.06061 4.10794 2.06061 4.10787C2.06061 4.1078 2.06061 4.10773 2.06061 4.10766C2.06061 4.10759 2.06061 4.10752 2.06061 4.10746C2.06061 4.10739 2.06061 4.10732 2.06061 4.10725C2.06061 4.10718 2.06061 4.10711 2.06061 4.10704C2.06061 4.10697 2.06061 4.1069 2.06061 4.10684C2.06061 4.10677 2.06061 4.1067 2.06061 4.10663C2.06061 4.10656 2.06061 4.10649 2.06061 4.10642C2.06061 4.10635 2.06061 4.10628 2.06061 4.10622C2.06061 4.10615 2.06061 4.10608 2.06061 4.10601C2.06061 4.10594 2.06061 4.10587 2.06061 4.1058C2.06061 4.10573 2.06061 4.10567 2.06061 4.1056C2.06061 4.10553 2.06061 4.10546 2.06061 4.10539C2.06061 4.10532 2.06061 4.10525 2.06061 4.10518C2.06061 4.10511 2.06061 4.10505 2.06061 4.10498C2.06061 4.10491 2.06061 4.10484 2.06061 4.10477C2.06061 4.1047 2.06061 4.10463 2.06061 4.10456C2.06061 4.10449 2.06061 4.10443 2.06061 4.10436C2.06061 4.10429 2.06061 4.10422 2.06061 4.10415C2.06061 4.10408 2.06061 4.10401 2.06061 4.10394C2.06061 4.10388 2.06061 4.10381 2.06061 4.10374C2.06061 4.10367 2.06061 4.1036 2.06061 4.10353C2.06061 4.10346 2.06061 4.10339 2.06061 4.10332C2.06061 4.10326 2.06061 4.10319 2.06061 4.10312C2.06061 4.10305 2.06061 4.10298 2.06061 4.10291C2.06061 4.10284 2.06061 4.10277 2.06061 4.1027C2.06061 4.10264 2.06061 4.10257 2.06061 4.1025C2.06061 4.10243 2.06061 4.10236 2.06061 4.10229C2.06061 4.10222 2.06061 4.10215 2.06061 4.10209C2.06061 4.10202 2.06061 4.10195 2.06061 4.10188C2.06061 4.10181 2.06061 4.10174 2.06061 4.10167C2.06061 4.1016 2.06061 4.10153 2.06061 4.10147C2.06061 4.1014 2.06061 4.10133 2.06061 4.10126C2.06061 4.10119 2.06061 4.10112 2.06061 4.10105C2.06061 4.10098 2.06061 4.10092 2.06061 4.10085C2.06061 4.10078 2.06061 4.10071 2.06061 4.10064C2.06061 4.10057 2.06061 4.1005 2.06061 4.10043C2.06061 4.10036 2.06061 4.1003 2.06061 4.10023C2.06061 4.10016 2.06061 4.10009 2.06061 4.10002C2.06061 4.09995 2.06061 4.09988 2.06061 4.09981C2.06061 4.09974 2.06061 4.09968 2.06061 4.09961C2.06061 4.09954 2.06061 4.09947 2.06061 4.0994C2.06061 4.09933 2.06061 4.09926 2.06061 4.09919C2.06061 4.09913 2.06061 4.09906 2.06061 4.09899C2.06061 4.09892 2.06061 4.09885 2.06061 4.09878C2.06061 4.09871 2.06061 4.09864 2.06061 4.09857C2.06061 4.09851 2.06061 4.09844 2.06061 4.09837C2.06061 4.0983 2.06061 4.09823 2.06061 4.09816C2.06061 4.09809 2.06061 4.09802 2.06061 4.09795C2.06061 4.09789 2.06061 4.09782 2.06061 4.09775C2.06061 4.09768 2.06061 4.09761 2.06061 4.09754C2.06061 4.09747 2.06061 4.0974 2.06061 4.09734C2.06061 4.09727 2.06061 4.0972 2.06061 4.09713C2.06061 4.09706 2.06061 4.09699 2.06061 4.09692C2.06061 4.09685 2.06061 4.09678 2.06061 4.09672C2.06061 4.09665 2.06061 4.09658 2.06061 4.09651C2.06061 4.09644 2.06061 4.09637 2.06061 4.0963C2.06061 4.09623 2.06061 4.09616 2.06061 4.0961C2.06061 4.09603 2.06061 4.09596 2.06061 4.09589C2.06061 4.09582 2.06061 4.09575 2.06061 4.09568C2.06061 4.09561 2.06061 4.09555 2.06061 4.09548C2.06061 4.09541 2.06061 4.09534 2.06061 4.09527C2.06061 4.0952 2.06061 4.09513 2.06061 4.09506C2.06061 4.09499 2.06061 4.09493 2.06061 4.09486C2.06061 4.09479 2.06061 4.09472 2.06061 4.09465C2.06061 4.09458 2.06061 4.09451 2.06061 4.09444C2.06061 4.09437 2.06061 4.09431 2.06061 4.09424C2.06061 4.09417 2.06061 4.0941 2.06061 4.09403C2.06061 4.09396 2.06061 4.09389 2.06061 4.09382C2.06061 4.09376 2.06061 4.09369 2.06061 4.09362C2.06061 4.09355 2.06061 4.09348 2.06061 4.09341C2.06061 4.09334 2.06061 4.09327 2.06061 4.0932C2.06061 4.09314 2.06061 4.09307 2.06061 4.093C2.06061 4.09293 2.06061 4.09286 2.06061 4.09279C2.06061 4.09272 2.06061 4.09265 2.06061 4.09258C2.06061 4.09252 2.06061 4.09245 2.06061 4.09238C2.06061 4.09231 2.06061 4.09224 2.06061 4.09217C2.06061 4.0921 2.06061 4.09203 2.06061 4.09197C2.06061 4.0919 2.06061 4.09183 2.06061 4.09176C2.06061 4.09169 2.06061 4.09162 2.06061 4.09155C2.06061 4.09148 2.06061 4.09141 2.06061 4.09135C2.06061 4.09128 2.06061 4.09121 2.06061 4.09114C2.06061 4.09107 2.06061 4.091 2.06061 4.09093C2.06061 4.09086 2.06061 4.09079 2.06061 4.09073C2.06061 4.09066 2.06061 4.09059 2.06061 4.09052C2.06061 4.09045 2.06061 4.09038 2.06061 4.09031C2.06061 4.09024 2.06061 4.09018 2.06061 4.09011C2.06061 4.09004 2.06061 4.08997 2.06061 4.0899C2.06061 4.08983 2.06061 4.08976 2.06061 4.08969C2.06061 4.08962 2.06061 4.08956 2.06061 4.08949C2.06061 4.08942 2.06061 4.08935 2.06061 4.08928C2.06061 4.08921 2.06061 4.08914 2.06061 4.08907C2.06061 4.089 2.06061 4.08894 2.06061 4.08887C2.06061 4.0888 2.06061 4.08873 2.06061 4.08866C2.06061 4.08859 2.06061 4.08852 2.06061 4.08845C2.06061 4.08839 2.06061 4.08832 2.06061 4.08825C2.06061 4.08818 2.06061 4.08811 2.06061 4.08804C2.06061 4.08797 2.06061 4.0879 2.06061 4.08783C2.06061 4.08777 2.06061 4.0877 2.06061 4.08763C2.06061 4.08756 2.06061 4.08749 2.06061 4.08742C2.06061 4.08735 2.06061 4.08728 2.06061 4.08721C2.06061 4.08715 2.06061 4.08708 2.06061 4.08701C2.06061 4.08694 2.06061 4.08687 2.06061 4.0868C2.06061 4.08673 2.06061 4.08666 2.06061 4.0866C2.06061 4.08653 2.06061 4.08646 2.06061 4.08639C2.06061 4.08632 2.06061 4.08625 2.06061 4.08618C2.06061 4.08611 2.06061 4.08604 2.06061 4.08598C2.06061 4.08591 2.06061 4.08584 2.06061 4.08577C2.06061 4.0857 2.06061 4.08563 2.06061 4.08556C2.06061 4.08549 2.06061 4.08542 2.06061 4.08536C2.06061 4.08529 2.06061 4.08522 2.06061 4.08515C2.06061 4.08508 2.06061 4.08501 2.06061 4.08494C2.06061 4.08487 2.06061 4.08481 2.06061 4.08474C2.06061 4.08467 2.06061 4.0846 2.06061 4.08453C2.06061 4.08446 2.06061 4.08439 2.06061 4.08432C2.06061 4.08425 2.06061 4.08419 2.06061 4.08412C2.06061 4.08405 2.06061 4.08398 2.06061 4.08391C2.06061 4.08384 2.06061 4.08377 2.06061 4.0837C2.06061 4.08363 2.06061 4.08357 2.06061 4.0835C2.06061 4.08343 2.06061 4.08336 2.06061 4.08329C2.06061 4.08322 2.06061 4.08315 2.06061 4.08308C2.06061 4.08302 2.06061 4.08295 2.06061 4.08288C2.06061 4.08281 2.06061 4.08274 2.06061 4.08267C2.06061 4.0826 2.06061 4.08253 2.06061 4.08246C2.06061 4.0824 2.06061 4.08233 2.06061 4.08226C2.06061 4.08219 2.06061 4.08212 2.06061 4.08205C2.06061 4.08198 2.06061 4.08191 2.06061 4.08185C2.06061 4.08178 2.06061 4.08171 2.06061 4.08164C2.06061 4.08157 2.06061 4.0815 2.06061 4.08143C2.06061 4.08136 2.06061 4.08129 2.06061 4.08123C2.06061 4.08116 2.06061 4.08109 2.06061 4.08102C2.06061 4.08095 2.06061 4.08088 2.06061 4.08081C2.06061 4.08074 2.06061 4.08067 2.06061 4.08061C2.06061 4.08054 2.06061 4.08047 2.06061 4.0804C2.06061 4.08033 2.06061 4.08026 2.06061 4.08019C2.06061 4.08012 2.06061 4.08006 2.06061 4.07999C2.06061 4.07992 2.06061 4.07985 2.06061 4.07978C2.06061 4.07971 2.06061 4.07964 2.06061 4.07957C2.06061 4.0795 2.06061 4.07944 2.06061 4.07937C2.06061 4.0793 2.06061 4.07923 2.06061 4.07916C2.06061 4.07909 2.06061 4.07902 2.06061 4.07895C2.06061 4.07888 2.06061 4.07882 2.06061 4.07875C2.06061 4.07868 2.06061 4.07861 2.06061 4.07854C2.06061 4.07847 2.06061 4.0784 2.06061 4.07833C2.06061 4.07827 2.06061 4.0782 2.06061 4.07813C2.06061 4.07806 2.06061 4.07799 2.06061 4.07792C2.06061 4.07785 2.06061 4.07778 2.06061 4.07771C2.06061 4.07765 2.06061 4.07758 2.06061 4.07751C2.06061 4.07744 2.06061 4.07737 2.06061 4.0773C2.06061 4.07723 2.06061 4.07716 2.06061 4.07709C2.06061 4.07703 2.06061 4.07696 2.06061 4.07689C2.06061 4.07682 2.06061 4.07675 2.06061 4.07668C2.06061 4.07661 2.06061 4.07654 2.06061 4.07648C2.06061 4.07641 2.06061 4.07634 2.06061 4.07627C2.06061 4.0762 2.06061 4.07613 2.06061 4.07606C2.06061 4.07599 2.06061 4.07592 2.06061 4.07586C2.06061 4.07579 2.06061 4.07572 2.06061 4.07565C2.06061 4.07558 2.06061 4.07551 2.06061 4.07544C2.06061 4.07537 2.06061 4.0753 2.06061 4.07524C2.06061 4.07517 2.06061 4.0751 2.06061 4.07503C2.06061 4.07496 2.06061 4.07489 2.06061 4.07482C2.06061 4.07475 2.06061 4.07469 2.06061 4.07462C2.06061 4.07455 2.06061 4.07448 2.06061 4.07441C2.06061 4.07434 2.06061 4.07427 2.06061 4.0742C2.06061 4.07413 2.06061 4.07407 2.06061 4.074C2.06061 4.07393 2.06061 4.07386 2.06061 4.07379C2.06061 4.07372 2.06061 4.07365 2.06061 4.07358C2.06061 4.07351 2.06061 4.07345 2.06061 4.07338C2.06061 4.07331 2.06061 4.07324 2.06061 4.07317C2.06061 4.0731 2.06061 4.07303 2.06061 4.07296C2.06061 4.0729 2.06061 4.07283 2.06061 4.07276C2.06061 4.07269 2.06061 4.07262 2.06061 4.07255C2.06061 4.07248 2.06061 4.07241 2.06061 4.07234C2.06061 4.07228 2.06061 4.07221 2.06061 4.07214C2.06061 4.07207 2.06061 4.072 2.06061 4.07193C2.06061 4.07186 2.06061 4.07179 2.06061 4.07172C2.06061 4.07166 2.06061 4.07159 2.06061 4.07152C2.06061 4.07145 2.06061 4.07138 2.06061 4.07131C2.06061 4.07124 2.06061 4.07117 2.06061 4.07111C2.06061 4.07104 2.06061 4.07097 2.06061 4.0709C2.06061 4.07083 2.06061 4.07076 2.06061 4.07069C2.06061 4.07062 2.06061 4.07055 2.06061 4.07049C2.06061 4.07042 2.06061 4.07035 2.06061 4.07028C2.06061 4.07021 2.06061 4.07014 2.06061 4.07007C2.06061 4.07 2.06061 4.06993 2.06061 4.06987C2.06061 4.0698 2.06061 4.06973 2.06061 4.06966C2.06061 4.06959 2.06061 4.06952 2.06061 4.06945C2.06061 4.06938 2.06061 4.06932 2.06061 4.06925C2.06061 4.06918 2.06061 4.06911 2.06061 4.06904C2.06061 4.06897 2.06061 4.0689 2.06061 4.06883C2.06061 4.06876 2.06061 4.0687 2.06061 4.06863C2.06061 4.06856 2.06061 4.06849 2.06061 4.06842C2.06061 4.06835 2.06061 4.06828 2.06061 4.06821C2.06061 4.06814 2.06061 4.06808 2.06061 4.06801C2.06061 4.06794 2.06061 4.06787 2.06061 4.0678C2.06061 4.06773 2.06061 4.06766 2.06061 4.06759C2.06061 4.06753 2.06061 4.06746 2.06061 4.06739C2.06061 4.06732 2.06061 4.06725 2.06061 4.06718C2.06061 4.06711 2.06061 4.06704 2.06061 4.06697C2.06061 4.06691 2.06061 4.06684 2.06061 4.06677C2.06061 4.0667 2.06061 4.06663 2.06061 4.06656C2.06061 4.06649 2.06061 4.06642 2.06061 4.06635C2.06061 4.06629 2.06061 4.06622 2.06061 4.06615C2.06061 4.06608 2.06061 4.06601 2.06061 4.06594C2.06061 4.06587 2.06061 4.0658 2.06061 4.06574C2.06061 4.06567 2.06061 4.0656 2.06061 4.06553C2.06061 4.06546 2.06061 4.06539 2.06061 4.06532C2.06061 4.06525 2.06061 4.06518 2.06061 4.06512C2.06061 4.06505 2.06061 4.06498 2.06061 4.06491C2.06061 4.06484 2.06061 4.06477 2.06061 4.0647C2.06061 4.06463 2.06061 4.06456 2.06061 4.0645C2.06061 4.06443 2.06061 4.06436 2.06061 4.06429C2.06061 4.06422 2.06061 4.06415 2.06061 4.06408C2.06061 4.06401 2.06061 4.06395 2.06061 4.06388C2.06061 4.06381 2.06061 4.06374 2.06061 4.06367C2.06061 4.0636 2.06061 4.06353 2.06061 4.06346C2.06061 4.06339 2.06061 4.06333 2.06061 4.06326C2.06061 4.06319 2.06061 4.06312 2.06061 4.06305C2.06061 4.06298 2.06061 4.06291 2.06061 4.06284C2.06061 4.06278 2.06061 4.06271 2.06061 4.06264C2.06061 4.06257 2.06061 4.0625 2.06061 4.06243C2.06061 4.06236 2.06061 4.06229 2.06061 4.06222C2.06061 4.06216 2.06061 4.06209 2.06061 4.06202C2.06061 4.06195 2.06061 4.06188 2.06061 4.06181C2.06061 4.06174 2.06061 4.06167 2.06061 4.0616C2.06061 4.06154 2.06061 4.06147 2.06061 4.0614C2.06061 4.06133 2.06061 4.06126 2.06061 4.06119C2.06061 4.06112 2.06061 4.06105 2.06061 4.06099C2.06061 4.06092 2.06061 4.06085 2.06061 4.06078C2.06061 4.06071 2.06061 4.06064 2.06061 4.06057C2.06061 4.0605 2.06061 4.06043 2.06061 4.06037C2.06061 4.0603 2.06061 4.06023 2.06061 4.06016C2.06061 4.06009 2.06061 4.06002 2.06061 4.05995C2.06061 4.05988 2.06061 4.05981 2.06061 4.05975C2.06061 4.05968 2.06061 4.05961 2.06061 4.05954C2.06061 4.05947 2.06061 4.0594 2.06061 4.05933C2.06061 4.05926 2.06061 4.0592 2.06061 4.05913C2.06061 4.05906 2.06061 4.05899 2.06061 4.05892C2.06061 4.05885 2.06061 4.05878 2.06061 4.05871C2.06061 4.05864 2.06061 4.05858 2.06061 4.05851C2.06061 4.05844 2.06061 4.05837 2.06061 4.0583C2.06061 4.05823 2.06061 4.05816 2.06061 4.05809C2.06061 4.05802 2.06061 4.05796 2.06061 4.05789C2.06061 4.05782 2.06061 4.05775 2.06061 4.05768C2.06061 4.05761 2.06061 4.05754 2.06061 4.05747C2.06061 4.05741 2.06061 4.05734 2.06061 4.05727C2.06061 4.0572 2.06061 4.05713 2.06061 4.05706C2.06061 4.05699 2.06061 4.05692 2.06061 4.05685C2.06061 4.05679 2.06061 4.05672 2.06061 4.05665C2.06061 4.05658 2.06061 4.05651 2.06061 4.05644C2.06061 4.05637 2.06061 4.0563 2.06061 4.05623C2.06061 4.05617 2.06061 4.0561 2.06061 4.05603C2.06061 4.05596 2.06061 4.05589 2.06061 4.05582C2.06061 4.05575 2.06061 4.05568 2.06061 4.05562C2.06061 4.05555 2.06061 4.05548 2.06061 4.05541C2.06061 4.05534 2.06061 4.05527 2.06061 4.0552C2.06061 4.05513 2.06061 4.05506 2.06061 4.055C2.06061 4.05493 2.06061 4.05486 2.06061 4.05479C2.06061 4.05472 2.06061 4.05465 2.06061 4.05458C2.06061 4.05451 2.06061 4.05444 2.06061 4.05438C2.06061 4.05431 2.06061 4.05424 2.06061 4.05417C2.06061 4.0541 2.06061 4.05403 2.06061 4.05396C2.06061 4.05389 2.06061 4.05383 2.06061 4.05376C2.06061 4.05369 2.06061 4.05362 2.06061 4.05355C2.06061 4.05348 2.06061 4.05341 2.06061 4.05334C2.06061 4.05327 2.06061 4.05321 2.06061 4.05314C2.06061 4.05307 2.06061 4.053 2.06061 4.05293C2.06061 4.05286 2.06061 4.05279 2.06061 4.05272C2.06061 4.05265 2.06061 4.05259 2.06061 4.05252C2.06061 4.05245 2.06061 4.05238 2.06061 4.05231C2.06061 4.05224 2.06061 4.05217 2.06061 4.0521C2.06061 4.05204 2.06061 4.05197 2.06061 4.0519C2.06061 4.05183 2.06061 4.05176 2.06061 4.05169C2.06061 4.05162 2.06061 4.05155 2.06061 4.05148C2.06061 4.05142 2.06061 4.05135 2.06061 4.05128C2.06061 4.05121 2.06061 4.05114 2.06061 4.05107C2.06061 4.051 2.06061 4.05093 2.06061 4.05086C2.06061 4.0508 2.06061 4.05073 2.06061 4.05066C2.06061 4.05059 2.06061 4.05052 2.06061 4.05045C2.06061 4.05038 2.06061 4.05031 2.06061 4.05025C2.06061 4.05018 2.06061 4.05011 2.06061 4.05004C2.06061 4.04997 2.06061 4.0499 2.06061 4.04983C2.06061 4.04976 2.06061 4.04969 2.06061 4.04963C2.06061 4.04956 2.06061 4.04949 2.06061 4.04942C2.06061 4.04935 2.06061 4.04928 2.06061 4.04921C2.06061 4.04914 2.06061 4.04907 2.06061 4.04901C2.06061 4.04894 2.06061 4.04887 2.06061 4.0488C2.06061 4.04873 2.06061 4.04866 2.06061 4.04859C2.06061 4.04852 2.06061 4.04846 2.06061 4.04839C2.06061 4.04832 2.06061 4.04825 2.06061 4.04818C2.06061 4.04811 2.06061 4.04804 2.06061 4.04797C2.06061 4.0479 2.06061 4.04784 2.06061 4.04777C2.06061 4.0477 2.06061 4.04763 2.06061 4.04756C2.06061 4.04749 2.06061 4.04742 2.06061 4.04735C2.06061 4.04728 2.06061 4.04722 2.06061 4.04715C2.06061 4.04708 2.06061 4.04701 2.06061 4.04694C2.06061 4.04687 2.06061 4.0468 2.06061 4.04673C2.06061 4.04667 2.06061 4.0466 2.06061 4.04653H1.06061H0.0606059C0.0606059 4.0466 0.0606059 4.04667 0.0606059 4.04673C0.0606059 4.0468 0.0606059 4.04687 0.0606059 4.04694C0.0606059 4.04701 0.0606059 4.04708 0.0606059 4.04715C0.0606059 4.04722 0.0606059 4.04728 0.0606059 4.04735C0.0606059 4.04742 0.0606059 4.04749 0.0606059 4.04756C0.0606059 4.04763 0.0606059 4.0477 0.0606059 4.04777C0.0606059 4.04784 0.0606059 4.0479 0.0606059 4.04797C0.0606059 4.04804 0.0606059 4.04811 0.0606059 4.04818C0.0606059 4.04825 0.0606059 4.04832 0.0606059 4.04839C0.0606059 4.04846 0.0606059 4.04852 0.0606059 4.04859C0.0606059 4.04866 0.0606059 4.04873 0.0606059 4.0488C0.0606059 4.04887 0.0606059 4.04894 0.0606059 4.04901C0.0606059 4.04907 0.0606059 4.04914 0.0606059 4.04921C0.0606059 4.04928 0.0606059 4.04935 0.0606059 4.04942C0.0606059 4.04949 0.0606059 4.04956 0.0606059 4.04963C0.0606059 4.04969 0.0606059 4.04976 0.0606059 4.04983C0.0606059 4.0499 0.0606059 4.04997 0.0606059 4.05004C0.0606059 4.05011 0.0606059 4.05018 0.0606059 4.05025C0.0606059 4.05031 0.0606059 4.05038 0.0606059 4.05045C0.0606059 4.05052 0.0606059 4.05059 0.0606059 4.05066C0.0606059 4.05073 0.0606059 4.0508 0.0606059 4.05086C0.0606059 4.05093 0.0606059 4.051 0.0606059 4.05107C0.0606059 4.05114 0.0606059 4.05121 0.0606059 4.05128C0.0606059 4.05135 0.0606059 4.05142 0.0606059 4.05148C0.0606059 4.05155 0.0606059 4.05162 0.0606059 4.05169C0.0606059 4.05176 0.0606059 4.05183 0.0606059 4.0519C0.0606059 4.05197 0.0606059 4.05204 0.0606059 4.0521C0.0606059 4.05217 0.0606059 4.05224 0.0606059 4.05231C0.0606059 4.05238 0.0606059 4.05245 0.0606059 4.05252C0.0606059 4.05259 0.0606059 4.05265 0.0606059 4.05272C0.0606059 4.05279 0.0606059 4.05286 0.0606059 4.05293C0.0606059 4.053 0.0606059 4.05307 0.0606059 4.05314C0.0606059 4.05321 0.0606059 4.05327 0.0606059 4.05334C0.0606059 4.05341 0.0606059 4.05348 0.0606059 4.05355C0.0606059 4.05362 0.0606059 4.05369 0.0606059 4.05376C0.0606059 4.05383 0.0606059 4.05389 0.0606059 4.05396C0.0606059 4.05403 0.0606059 4.0541 0.0606059 4.05417C0.0606059 4.05424 0.0606059 4.05431 0.0606059 4.05438C0.0606059 4.05444 0.0606059 4.05451 0.0606059 4.05458C0.0606059 4.05465 0.0606059 4.05472 0.0606059 4.05479C0.0606059 4.05486 0.0606059 4.05493 0.0606059 4.055C0.0606059 4.05506 0.0606059 4.05513 0.0606059 4.0552C0.0606059 4.05527 0.0606059 4.05534 0.0606059 4.05541C0.0606059 4.05548 0.0606059 4.05555 0.0606059 4.05562C0.0606059 4.05568 0.0606059 4.05575 0.0606059 4.05582C0.0606059 4.05589 0.0606059 4.05596 0.0606059 4.05603C0.0606059 4.0561 0.0606059 4.05617 0.0606059 4.05623C0.0606059 4.0563 0.0606059 4.05637 0.0606059 4.05644C0.0606059 4.05651 0.0606059 4.05658 0.0606059 4.05665C0.0606059 4.05672 0.0606059 4.05679 0.0606059 4.05685C0.0606059 4.05692 0.0606059 4.05699 0.0606059 4.05706C0.0606059 4.05713 0.0606059 4.0572 0.0606059 4.05727C0.0606059 4.05734 0.0606059 4.05741 0.0606059 4.05747C0.0606059 4.05754 0.0606059 4.05761 0.0606059 4.05768C0.0606059 4.05775 0.0606059 4.05782 0.0606059 4.05789C0.0606059 4.05796 0.0606059 4.05802 0.0606059 4.05809C0.0606059 4.05816 0.0606059 4.05823 0.0606059 4.0583C0.0606059 4.05837 0.0606059 4.05844 0.0606059 4.05851C0.0606059 4.05858 0.0606059 4.05864 0.0606059 4.05871C0.0606059 4.05878 0.0606059 4.05885 0.0606059 4.05892C0.0606059 4.05899 0.0606059 4.05906 0.0606059 4.05913C0.0606059 4.0592 0.0606059 4.05926 0.0606059 4.05933C0.0606059 4.0594 0.0606059 4.05947 0.0606059 4.05954C0.0606059 4.05961 0.0606059 4.05968 0.0606059 4.05975C0.0606059 4.05981 0.0606059 4.05988 0.0606059 4.05995C0.0606059 4.06002 0.0606059 4.06009 0.0606059 4.06016C0.0606059 4.06023 0.0606059 4.0603 0.0606059 4.06037C0.0606059 4.06043 0.0606059 4.0605 0.0606059 4.06057C0.0606059 4.06064 0.0606059 4.06071 0.0606059 4.06078C0.0606059 4.06085 0.0606059 4.06092 0.0606059 4.06099C0.0606059 4.06105 0.0606059 4.06112 0.0606059 4.06119C0.0606059 4.06126 0.0606059 4.06133 0.0606059 4.0614C0.0606059 4.06147 0.0606059 4.06154 0.0606059 4.0616C0.0606059 4.06167 0.0606059 4.06174 0.0606059 4.06181C0.0606059 4.06188 0.0606059 4.06195 0.0606059 4.06202C0.0606059 4.06209 0.0606059 4.06216 0.0606059 4.06222C0.0606059 4.06229 0.0606059 4.06236 0.0606059 4.06243C0.0606059 4.0625 0.0606059 4.06257 0.0606059 4.06264C0.0606059 4.06271 0.0606059 4.06278 0.0606059 4.06284C0.0606059 4.06291 0.0606059 4.06298 0.0606059 4.06305C0.0606059 4.06312 0.0606059 4.06319 0.0606059 4.06326C0.0606059 4.06333 0.0606059 4.06339 0.0606059 4.06346C0.0606059 4.06353 0.0606059 4.0636 0.0606059 4.06367C0.0606059 4.06374 0.0606059 4.06381 0.0606059 4.06388C0.0606059 4.06395 0.0606059 4.06401 0.0606059 4.06408C0.0606059 4.06415 0.0606059 4.06422 0.0606059 4.06429C0.0606059 4.06436 0.0606059 4.06443 0.0606059 4.0645C0.0606059 4.06456 0.0606059 4.06463 0.0606059 4.0647C0.0606059 4.06477 0.0606059 4.06484 0.0606059 4.06491C0.0606059 4.06498 0.0606059 4.06505 0.0606059 4.06512C0.0606059 4.06518 0.0606059 4.06525 0.0606059 4.06532C0.0606059 4.06539 0.0606059 4.06546 0.0606059 4.06553C0.0606059 4.0656 0.0606059 4.06567 0.0606059 4.06574C0.0606059 4.0658 0.0606059 4.06587 0.0606059 4.06594C0.0606059 4.06601 0.0606059 4.06608 0.0606059 4.06615C0.0606059 4.06622 0.0606059 4.06629 0.0606059 4.06635C0.0606059 4.06642 0.0606059 4.06649 0.0606059 4.06656C0.0606059 4.06663 0.0606059 4.0667 0.0606059 4.06677C0.0606059 4.06684 0.0606059 4.06691 0.0606059 4.06697C0.0606059 4.06704 0.0606059 4.06711 0.0606059 4.06718C0.0606059 4.06725 0.0606059 4.06732 0.0606059 4.06739C0.0606059 4.06746 0.0606059 4.06753 0.0606059 4.06759C0.0606059 4.06766 0.0606059 4.06773 0.0606059 4.0678C0.0606059 4.06787 0.0606059 4.06794 0.0606059 4.06801C0.0606059 4.06808 0.0606059 4.06814 0.0606059 4.06821C0.0606059 4.06828 0.0606059 4.06835 0.0606059 4.06842C0.0606059 4.06849 0.0606059 4.06856 0.0606059 4.06863C0.0606059 4.0687 0.0606059 4.06876 0.0606059 4.06883C0.0606059 4.0689 0.0606059 4.06897 0.0606059 4.06904C0.0606059 4.06911 0.0606059 4.06918 0.0606059 4.06925C0.0606059 4.06932 0.0606059 4.06938 0.0606059 4.06945C0.0606059 4.06952 0.0606059 4.06959 0.0606059 4.06966C0.0606059 4.06973 0.0606059 4.0698 0.0606059 4.06987C0.0606059 4.06993 0.0606059 4.07 0.0606059 4.07007C0.0606059 4.07014 0.0606059 4.07021 0.0606059 4.07028C0.0606059 4.07035 0.0606059 4.07042 0.0606059 4.07049C0.0606059 4.07055 0.0606059 4.07062 0.0606059 4.07069C0.0606059 4.07076 0.0606059 4.07083 0.0606059 4.0709C0.0606059 4.07097 0.0606059 4.07104 0.0606059 4.07111C0.0606059 4.07117 0.0606059 4.07124 0.0606059 4.07131C0.0606059 4.07138 0.0606059 4.07145 0.0606059 4.07152C0.0606059 4.07159 0.0606059 4.07166 0.0606059 4.07172C0.0606059 4.07179 0.0606059 4.07186 0.0606059 4.07193C0.0606059 4.072 0.0606059 4.07207 0.0606059 4.07214C0.0606059 4.07221 0.0606059 4.07228 0.0606059 4.07234C0.0606059 4.07241 0.0606059 4.07248 0.0606059 4.07255C0.0606059 4.07262 0.0606059 4.07269 0.0606059 4.07276C0.0606059 4.07283 0.0606059 4.0729 0.0606059 4.07296C0.0606059 4.07303 0.0606059 4.0731 0.0606059 4.07317C0.0606059 4.07324 0.0606059 4.07331 0.0606059 4.07338C0.0606059 4.07345 0.0606059 4.07351 0.0606059 4.07358C0.0606059 4.07365 0.0606059 4.07372 0.0606059 4.07379C0.0606059 4.07386 0.0606059 4.07393 0.0606059 4.074C0.0606059 4.07407 0.0606059 4.07413 0.0606059 4.0742C0.0606059 4.07427 0.0606059 4.07434 0.0606059 4.07441C0.0606059 4.07448 0.0606059 4.07455 0.0606059 4.07462C0.0606059 4.07469 0.0606059 4.07475 0.0606059 4.07482C0.0606059 4.07489 0.0606059 4.07496 0.0606059 4.07503C0.0606059 4.0751 0.0606059 4.07517 0.0606059 4.07524C0.0606059 4.0753 0.0606059 4.07537 0.0606059 4.07544C0.0606059 4.07551 0.0606059 4.07558 0.0606059 4.07565C0.0606059 4.07572 0.0606059 4.07579 0.0606059 4.07586C0.0606059 4.07592 0.0606059 4.07599 0.0606059 4.07606C0.0606059 4.07613 0.0606059 4.0762 0.0606059 4.07627C0.0606059 4.07634 0.0606059 4.07641 0.0606059 4.07648C0.0606059 4.07654 0.0606059 4.07661 0.0606059 4.07668C0.0606059 4.07675 0.0606059 4.07682 0.0606059 4.07689C0.0606059 4.07696 0.0606059 4.07703 0.0606059 4.07709C0.0606059 4.07716 0.0606059 4.07723 0.0606059 4.0773C0.0606059 4.07737 0.0606059 4.07744 0.0606059 4.07751C0.0606059 4.07758 0.0606059 4.07765 0.0606059 4.07771C0.0606059 4.07778 0.0606059 4.07785 0.0606059 4.07792C0.0606059 4.07799 0.0606059 4.07806 0.0606059 4.07813C0.0606059 4.0782 0.0606059 4.07827 0.0606059 4.07833C0.0606059 4.0784 0.0606059 4.07847 0.0606059 4.07854C0.0606059 4.07861 0.0606059 4.07868 0.0606059 4.07875C0.0606059 4.07882 0.0606059 4.07888 0.0606059 4.07895C0.0606059 4.07902 0.0606059 4.07909 0.0606059 4.07916C0.0606059 4.07923 0.0606059 4.0793 0.0606059 4.07937C0.0606059 4.07944 0.0606059 4.0795 0.0606059 4.07957C0.0606059 4.07964 0.0606059 4.07971 0.0606059 4.07978C0.0606059 4.07985 0.0606059 4.07992 0.0606059 4.07999C0.0606059 4.08006 0.0606059 4.08012 0.0606059 4.08019C0.0606059 4.08026 0.0606059 4.08033 0.0606059 4.0804C0.0606059 4.08047 0.0606059 4.08054 0.0606059 4.08061C0.0606059 4.08067 0.0606059 4.08074 0.0606059 4.08081C0.0606059 4.08088 0.0606059 4.08095 0.0606059 4.08102C0.0606059 4.08109 0.0606059 4.08116 0.0606059 4.08123C0.0606059 4.08129 0.0606059 4.08136 0.0606059 4.08143C0.0606059 4.0815 0.0606059 4.08157 0.0606059 4.08164C0.0606059 4.08171 0.0606059 4.08178 0.0606059 4.08185C0.0606059 4.08191 0.0606059 4.08198 0.0606059 4.08205C0.0606059 4.08212 0.0606059 4.08219 0.0606059 4.08226C0.0606059 4.08233 0.0606059 4.0824 0.0606059 4.08246C0.0606059 4.08253 0.0606059 4.0826 0.0606059 4.08267C0.0606059 4.08274 0.0606059 4.08281 0.0606059 4.08288C0.0606059 4.08295 0.0606059 4.08302 0.0606059 4.08308C0.0606059 4.08315 0.0606059 4.08322 0.0606059 4.08329C0.0606059 4.08336 0.0606059 4.08343 0.0606059 4.0835C0.0606059 4.08357 0.0606059 4.08363 0.0606059 4.0837C0.0606059 4.08377 0.0606059 4.08384 0.0606059 4.08391C0.0606059 4.08398 0.0606059 4.08405 0.0606059 4.08412C0.0606059 4.08419 0.0606059 4.08425 0.0606059 4.08432C0.0606059 4.08439 0.0606059 4.08446 0.0606059 4.08453C0.0606059 4.0846 0.0606059 4.08467 0.0606059 4.08474C0.0606059 4.08481 0.0606059 4.08487 0.0606059 4.08494C0.0606059 4.08501 0.0606059 4.08508 0.0606059 4.08515C0.0606059 4.08522 0.0606059 4.08529 0.0606059 4.08536C0.0606059 4.08542 0.0606059 4.08549 0.0606059 4.08556C0.0606059 4.08563 0.0606059 4.0857 0.0606059 4.08577C0.0606059 4.08584 0.0606059 4.08591 0.0606059 4.08598C0.0606059 4.08604 0.0606059 4.08611 0.0606059 4.08618C0.0606059 4.08625 0.0606059 4.08632 0.0606059 4.08639C0.0606059 4.08646 0.0606059 4.08653 0.0606059 4.0866C0.0606059 4.08666 0.0606059 4.08673 0.0606059 4.0868C0.0606059 4.08687 0.0606059 4.08694 0.0606059 4.08701C0.0606059 4.08708 0.0606059 4.08715 0.0606059 4.08721C0.0606059 4.08728 0.0606059 4.08735 0.0606059 4.08742C0.0606059 4.08749 0.0606059 4.08756 0.0606059 4.08763C0.0606059 4.0877 0.0606059 4.08777 0.0606059 4.08783C0.0606059 4.0879 0.0606059 4.08797 0.0606059 4.08804C0.0606059 4.08811 0.0606059 4.08818 0.0606059 4.08825C0.0606059 4.08832 0.0606059 4.08839 0.0606059 4.08845C0.0606059 4.08852 0.0606059 4.08859 0.0606059 4.08866C0.0606059 4.08873 0.0606059 4.0888 0.0606059 4.08887C0.0606059 4.08894 0.0606059 4.089 0.0606059 4.08907C0.0606059 4.08914 0.0606059 4.08921 0.0606059 4.08928C0.0606059 4.08935 0.0606059 4.08942 0.0606059 4.08949C0.0606059 4.08956 0.0606059 4.08962 0.0606059 4.08969C0.0606059 4.08976 0.0606059 4.08983 0.0606059 4.0899C0.0606059 4.08997 0.0606059 4.09004 0.0606059 4.09011C0.0606059 4.09018 0.0606059 4.09024 0.0606059 4.09031C0.0606059 4.09038 0.0606059 4.09045 0.0606059 4.09052C0.0606059 4.09059 0.0606059 4.09066 0.0606059 4.09073C0.0606059 4.09079 0.0606059 4.09086 0.0606059 4.09093C0.0606059 4.091 0.0606059 4.09107 0.0606059 4.09114C0.0606059 4.09121 0.0606059 4.09128 0.0606059 4.09135C0.0606059 4.09141 0.0606059 4.09148 0.0606059 4.09155C0.0606059 4.09162 0.0606059 4.09169 0.0606059 4.09176C0.0606059 4.09183 0.0606059 4.0919 0.0606059 4.09197C0.0606059 4.09203 0.0606059 4.0921 0.0606059 4.09217C0.0606059 4.09224 0.0606059 4.09231 0.0606059 4.09238C0.0606059 4.09245 0.0606059 4.09252 0.0606059 4.09258C0.0606059 4.09265 0.0606059 4.09272 0.0606059 4.09279C0.0606059 4.09286 0.0606059 4.09293 0.0606059 4.093C0.0606059 4.09307 0.0606059 4.09314 0.0606059 4.0932C0.0606059 4.09327 0.0606059 4.09334 0.0606059 4.09341C0.0606059 4.09348 0.0606059 4.09355 0.0606059 4.09362C0.0606059 4.09369 0.0606059 4.09376 0.0606059 4.09382C0.0606059 4.09389 0.0606059 4.09396 0.0606059 4.09403C0.0606059 4.0941 0.0606059 4.09417 0.0606059 4.09424C0.0606059 4.09431 0.0606059 4.09437 0.0606059 4.09444C0.0606059 4.09451 0.0606059 4.09458 0.0606059 4.09465C0.0606059 4.09472 0.0606059 4.09479 0.0606059 4.09486C0.0606059 4.09493 0.0606059 4.09499 0.0606059 4.09506C0.0606059 4.09513 0.0606059 4.0952 0.0606059 4.09527C0.0606059 4.09534 0.0606059 4.09541 0.0606059 4.09548C0.0606059 4.09555 0.0606059 4.09561 0.0606059 4.09568C0.0606059 4.09575 0.0606059 4.09582 0.0606059 4.09589C0.0606059 4.09596 0.0606059 4.09603 0.0606059 4.0961C0.0606059 4.09616 0.0606059 4.09623 0.0606059 4.0963C0.0606059 4.09637 0.0606059 4.09644 0.0606059 4.09651C0.0606059 4.09658 0.0606059 4.09665 0.0606059 4.09672C0.0606059 4.09678 0.0606059 4.09685 0.0606059 4.09692C0.0606059 4.09699 0.0606059 4.09706 0.0606059 4.09713C0.0606059 4.0972 0.0606059 4.09727 0.0606059 4.09734C0.0606059 4.0974 0.0606059 4.09747 0.0606059 4.09754C0.0606059 4.09761 0.0606059 4.09768 0.0606059 4.09775C0.0606059 4.09782 0.0606059 4.09789 0.0606059 4.09795C0.0606059 4.09802 0.0606059 4.09809 0.0606059 4.09816C0.0606059 4.09823 0.0606059 4.0983 0.0606059 4.09837C0.0606059 4.09844 0.0606059 4.09851 0.0606059 4.09857C0.0606059 4.09864 0.0606059 4.09871 0.0606059 4.09878C0.0606059 4.09885 0.0606059 4.09892 0.0606059 4.09899C0.0606059 4.09906 0.0606059 4.09913 0.0606059 4.09919C0.0606059 4.09926 0.0606059 4.09933 0.0606059 4.0994C0.0606059 4.09947 0.0606059 4.09954 0.0606059 4.09961C0.0606059 4.09968 0.0606059 4.09974 0.0606059 4.09981C0.0606059 4.09988 0.0606059 4.09995 0.0606059 4.10002C0.0606059 4.10009 0.0606059 4.10016 0.0606059 4.10023C0.0606059 4.1003 0.0606059 4.10036 0.0606059 4.10043C0.0606059 4.1005 0.0606059 4.10057 0.0606059 4.10064C0.0606059 4.10071 0.0606059 4.10078 0.0606059 4.10085C0.0606059 4.10092 0.0606059 4.10098 0.0606059 4.10105C0.0606059 4.10112 0.0606059 4.10119 0.0606059 4.10126C0.0606059 4.10133 0.0606059 4.1014 0.0606059 4.10147C0.0606059 4.10153 0.0606059 4.1016 0.0606059 4.10167C0.0606059 4.10174 0.0606059 4.10181 0.0606059 4.10188C0.0606059 4.10195 0.0606059 4.10202 0.0606059 4.10209C0.0606059 4.10215 0.0606059 4.10222 0.0606059 4.10229C0.0606059 4.10236 0.0606059 4.10243 0.0606059 4.1025C0.0606059 4.10257 0.0606059 4.10264 0.0606059 4.1027C0.0606059 4.10277 0.0606059 4.10284 0.0606059 4.10291C0.0606059 4.10298 0.0606059 4.10305 0.0606059 4.10312C0.0606059 4.10319 0.0606059 4.10326 0.0606059 4.10332C0.0606059 4.10339 0.0606059 4.10346 0.0606059 4.10353C0.0606059 4.1036 0.0606059 4.10367 0.0606059 4.10374C0.0606059 4.10381 0.0606059 4.10388 0.0606059 4.10394C0.0606059 4.10401 0.0606059 4.10408 0.0606059 4.10415C0.0606059 4.10422 0.0606059 4.10429 0.0606059 4.10436C0.0606059 4.10443 0.0606059 4.10449 0.0606059 4.10456C0.0606059 4.10463 0.0606059 4.1047 0.0606059 4.10477C0.0606059 4.10484 0.0606059 4.10491 0.0606059 4.10498C0.0606059 4.10505 0.0606059 4.10511 0.0606059 4.10518C0.0606059 4.10525 0.0606059 4.10532 0.0606059 4.10539C0.0606059 4.10546 0.0606059 4.10553 0.0606059 4.1056C0.0606059 4.10567 0.0606059 4.10573 0.0606059 4.1058C0.0606059 4.10587 0.0606059 4.10594 0.0606059 4.10601C0.0606059 4.10608 0.0606059 4.10615 0.0606059 4.10622C0.0606059 4.10628 0.0606059 4.10635 0.0606059 4.10642C0.0606059 4.10649 0.0606059 4.10656 0.0606059 4.10663C0.0606059 4.1067 0.0606059 4.10677 0.0606059 4.10684C0.0606059 4.1069 0.0606059 4.10697 0.0606059 4.10704C0.0606059 4.10711 0.0606059 4.10718 0.0606059 4.10725C0.0606059 4.10732 0.0606059 4.10739 0.0606059 4.10746C0.0606059 4.10752 0.0606059 4.10759 0.0606059 4.10766C0.0606059 4.10773 0.0606059 4.1078 0.0606059 4.10787C0.0606059 4.10794 0.0606059 4.10801 0.0606059 4.10807C0.0606059 4.10814 0.0606059 4.10821 0.0606059 4.10828C0.0606059 4.10835 0.0606059 4.10842 0.0606059 4.10849C0.0606059 4.10856 0.0606059 4.10863 0.0606059 4.10869C0.0606059 4.10876 0.0606059 4.10883 0.0606059 4.1089C0.0606059 4.10897 0.0606059 4.10904 0.0606059 4.10911C0.0606059 4.10918 0.0606059 4.10925 0.0606059 4.10931C0.0606059 4.10938 0.0606059 4.10945 0.0606059 4.10952C0.0606059 4.10959 0.0606059 4.10966 0.0606059 4.10973C0.0606059 4.1098 0.0606059 4.10986 0.0606059 4.10993C0.0606059 4.11 0.0606059 4.11007 0.0606059 4.11014C0.0606059 4.11021 0.0606059 4.11028 0.0606059 4.11035C0.0606059 4.11042 0.0606059 4.11048 0.0606059 4.11055C0.0606059 4.11062 0.0606059 4.11069 0.0606059 4.11076C0.0606059 4.11083 0.0606059 4.1109 0.0606059 4.11097C0.0606059 4.11104 0.0606059 4.1111 0.0606059 4.11117C0.0606059 4.11124 0.0606059 4.11131 0.0606059 4.11138C0.0606059 4.11145 0.0606059 4.11152 0.0606059 4.11159C0.0606059 4.11165 0.0606059 4.11172 0.0606059 4.11179C0.0606059 4.11186 0.0606059 4.11193 0.0606059 4.112C0.0606059 4.11207 0.0606059 4.11214 0.0606059 4.11221C0.0606059 4.11227 0.0606059 4.11234 0.0606059 4.11241C0.0606059 4.11248 0.0606059 4.11255 0.0606059 4.11262C0.0606059 4.11269 0.0606059 4.11276 0.0606059 4.11283C0.0606059 4.11289 0.0606059 4.11296 0.0606059 4.11303C0.0606059 4.1131 0.0606059 4.11317 0.0606059 4.11324C0.0606059 4.11331 0.0606059 4.11338 0.0606059 4.11344C0.0606059 4.11351 0.0606059 4.11358 0.0606059 4.11365C0.0606059 4.11372 0.0606059 4.11379 0.0606059 4.11386C0.0606059 4.11393 0.0606059 4.114 0.0606059 4.11406C0.0606059 4.11413 0.0606059 4.1142 0.0606059 4.11427C0.0606059 4.11434 0.0606059 4.11441 0.0606059 4.11448C0.0606059 4.11455 0.0606059 4.11462 0.0606059 4.11468C0.0606059 4.11475 0.0606059 4.11482 0.0606059 4.11489C0.0606059 4.11496 0.0606059 4.11503 0.0606059 4.1151C0.0606059 4.11517 0.0606059 4.11523 0.0606059 4.1153C0.0606059 4.11537 0.0606059 4.11544 0.0606059 4.11551C0.0606059 4.11558 0.0606059 4.11565 0.0606059 4.11572C0.0606059 4.11579 0.0606059 4.11585 0.0606059 4.11592C0.0606059 4.11599 0.0606059 4.11606 0.0606059 4.11613C0.0606059 4.1162 0.0606059 4.11627 0.0606059 4.11634C0.0606059 4.11641 0.0606059 4.11647 0.0606059 4.11654C0.0606059 4.11661 0.0606059 4.11668 0.0606059 4.11675C0.0606059 4.11682 0.0606059 4.11689 0.0606059 4.11696C0.0606059 4.11702 0.0606059 4.11709 0.0606059 4.11716C0.0606059 4.11723 0.0606059 4.1173 0.0606059 4.11737C0.0606059 4.11744 0.0606059 4.11751 0.0606059 4.11758C0.0606059 4.11764 0.0606059 4.11771 0.0606059 4.11778C0.0606059 4.11785 0.0606059 4.11792 0.0606059 4.11799C0.0606059 4.11806 0.0606059 4.11813 0.0606059 4.1182C0.0606059 4.11826 0.0606059 4.11833 0.0606059 4.1184C0.0606059 4.11847 0.0606059 4.11854 0.0606059 4.11861C0.0606059 4.11868 0.0606059 4.11875 0.0606059 4.11881C0.0606059 4.11888 0.0606059 4.11895 0.0606059 4.11902C0.0606059 4.11909 0.0606059 4.11916 0.0606059 4.11923C0.0606059 4.1193 0.0606059 4.11937 0.0606059 4.11943C0.0606059 4.1195 0.0606059 4.11957 0.0606059 4.11964C0.0606059 4.11971 0.0606059 4.11978 0.0606059 4.11985C0.0606059 4.11992 0.0606059 4.11999 0.0606059 4.12005C0.0606059 4.12012 0.0606059 4.12019 0.0606059 4.12026C0.0606059 4.12033 0.0606059 4.1204 0.0606059 4.12047C0.0606059 4.12054 0.0606059 4.1206 0.0606059 4.12067C0.0606059 4.12074 0.0606059 4.12081 0.0606059 4.12088C0.0606059 4.12095 0.0606059 4.12102 0.0606059 4.12109C0.0606059 4.12116 0.0606059 4.12122 0.0606059 4.12129C0.0606059 4.12136 0.0606059 4.12143 0.0606059 4.1215C0.0606059 4.12157 0.0606059 4.12164 0.0606059 4.12171C0.0606059 4.12177 0.0606059 4.12184 0.0606059 4.12191C0.0606059 4.12198 0.0606059 4.12205 0.0606059 4.12212C0.0606059 4.12219 0.0606059 4.12226 0.0606059 4.12233C0.0606059 4.12239 0.0606059 4.12246 0.0606059 4.12253C0.0606059 4.1226 0.0606059 4.12267 0.0606059 4.12274C0.0606059 4.12281 0.0606059 4.12288 0.0606059 4.12295C0.0606059 4.12301 0.0606059 4.12308 0.0606059 4.12315C0.0606059 4.12322 0.0606059 4.12329 0.0606059 4.12336C0.0606059 4.12343 0.0606059 4.1235 0.0606059 4.12356C0.0606059 4.12363 0.0606059 4.1237 0.0606059 4.12377C0.0606059 4.12384 0.0606059 4.12391 0.0606059 4.12398C0.0606059 4.12405 0.0606059 4.12412 0.0606059 4.12418C0.0606059 4.12425 0.0606059 4.12432 0.0606059 4.12439C0.0606059 4.12446 0.0606059 4.12453 0.0606059 4.1246C0.0606059 4.12467 0.0606059 4.12474 0.0606059 4.1248C0.0606059 4.12487 0.0606059 4.12494 0.0606059 4.12501C0.0606059 4.12508 0.0606059 4.12515 0.0606059 4.12522C0.0606059 4.12529 0.0606059 4.12535 0.0606059 4.12542C0.0606059 4.12549 0.0606059 4.12556 0.0606059 4.12563C0.0606059 4.1257 0.0606059 4.12577 0.0606059 4.12584C0.0606059 4.12591 0.0606059 4.12597 0.0606059 4.12604C0.0606059 4.12611 0.0606059 4.12618 0.0606059 4.12625C0.0606059 4.12632 0.0606059 4.12639 0.0606059 4.12646C0.0606059 4.12653 0.0606059 4.12659 0.0606059 4.12666C0.0606059 4.12673 0.0606059 4.1268 0.0606059 4.12687C0.0606059 4.12694 0.0606059 4.12701 0.0606059 4.12708C0.0606059 4.12714 0.0606059 4.12721 0.0606059 4.12728C0.0606059 4.12735 0.0606059 4.12742 0.0606059 4.12749C0.0606059 4.12756 0.0606059 4.12763 0.0606059 4.1277C0.0606059 4.12776 0.0606059 4.12783 0.0606059 4.1279C0.0606059 4.12797 0.0606059 4.12804 0.0606059 4.12811C0.0606059 4.12818 0.0606059 4.12825 0.0606059 4.12832C0.0606059 4.12838 0.0606059 4.12845 0.0606059 4.12852C0.0606059 4.12859 0.0606059 4.12866 0.0606059 4.12873C0.0606059 4.1288 0.0606059 4.12887 0.0606059 4.12893C0.0606059 4.129 0.0606059 4.12907 0.0606059 4.12914C0.0606059 4.12921 0.0606059 4.12928 0.0606059 4.12935C0.0606059 4.12942 0.0606059 4.12949 0.0606059 4.12955C0.0606059 4.12962 0.0606059 4.12969 0.0606059 4.12976C0.0606059 4.12983 0.0606059 4.1299 0.0606059 4.12997C0.0606059 4.13004 0.0606059 4.13011 0.0606059 4.13017C0.0606059 4.13024 0.0606059 4.13031 0.0606059 4.13038C0.0606059 4.13045 0.0606059 4.13052 0.0606059 4.13059C0.0606059 4.13066 0.0606059 4.13072 0.0606059 4.13079C0.0606059 4.13086 0.0606059 4.13093 0.0606059 4.131C0.0606059 4.13107 0.0606059 4.13114 0.0606059 4.13121C0.0606059 4.13128 0.0606059 4.13134 0.0606059 4.13141C0.0606059 4.13148 0.0606059 4.13155 0.0606059 4.13162C0.0606059 4.13169 0.0606059 4.13176 0.0606059 4.13183C0.0606059 4.1319 0.0606059 4.13196 0.0606059 4.13203C0.0606059 4.1321 0.0606059 4.13217 0.0606059 4.13224C0.0606059 4.13231 0.0606059 4.13238 0.0606059 4.13245C0.0606059 4.13251 0.0606059 4.13258 0.0606059 4.13265C0.0606059 4.13272 0.0606059 4.13279 0.0606059 4.13286C0.0606059 4.13293 0.0606059 4.133 0.0606059 4.13307C0.0606059 4.13313 0.0606059 4.1332 0.0606059 4.13327C0.0606059 4.13334 0.0606059 4.13341 0.0606059 4.13348C0.0606059 4.13355 0.0606059 4.13362 0.0606059 4.13369C0.0606059 4.13375 0.0606059 4.13382 0.0606059 4.13389C0.0606059 4.13396 0.0606059 4.13403 0.0606059 4.1341C0.0606059 4.13417 0.0606059 4.13424 0.0606059 4.1343C0.0606059 4.13437 0.0606059 4.13444 0.0606059 4.13451C0.0606059 4.13458 0.0606059 4.13465 0.0606059 4.13472C0.0606059 4.13479 0.0606059 4.13486 0.0606059 4.13492C0.0606059 4.13499 0.0606059 4.13506 0.0606059 4.13513C0.0606059 4.1352 0.0606059 4.13527 0.0606059 4.13534C0.0606059 4.13541 0.0606059 4.13548 0.0606059 4.13554C0.0606059 4.13561 0.0606059 4.13568 0.0606059 4.13575C0.0606059 4.13582 0.0606059 4.13589 0.0606059 4.13596C0.0606059 4.13603 0.0606059 4.13609 0.0606059 4.13616C0.0606059 4.13623 0.0606059 4.1363 0.0606059 4.13637C0.0606059 4.13644 0.0606059 4.13651 0.0606059 4.13658C0.0606059 4.13665 0.0606059 4.13671 0.0606059 4.13678C0.0606059 4.13685 0.0606059 4.13692 0.0606059 4.13699C0.0606059 4.13706 0.0606059 4.13713 0.0606059 4.1372C0.0606059 4.13727 0.0606059 4.13733 0.0606059 4.1374C0.0606059 4.13747 0.0606059 4.13754 0.0606059 4.13761C0.0606059 4.13768 0.0606059 4.13775 0.0606059 4.13782C0.0606059 4.13788 0.0606059 4.13795 0.0606059 4.13802C0.0606059 4.13809 0.0606059 4.13816 0.0606059 4.13823C0.0606059 4.1383 0.0606059 4.13837 0.0606059 4.13844C0.0606059 4.1385 0.0606059 4.13857 0.0606059 4.13864C0.0606059 4.13871 0.0606059 4.13878 0.0606059 4.13885C0.0606059 4.13892 0.0606059 4.13899 0.0606059 4.13906C0.0606059 4.13912 0.0606059 4.13919 0.0606059 4.13926C0.0606059 4.13933 0.0606059 4.1394 0.0606059 4.13947C0.0606059 4.13954 0.0606059 4.13961 0.0606059 4.13967C0.0606059 4.13974 0.0606059 4.13981 0.0606059 4.13988C0.0606059 4.13995 0.0606059 4.14002 0.0606059 4.14009C0.0606059 4.14016 0.0606059 4.14023 0.0606059 4.14029C0.0606059 4.14036 0.0606059 4.14043 0.0606059 4.1405C0.0606059 4.14057 0.0606059 4.14064 0.0606059 4.14071C0.0606059 4.14078 0.0606059 4.14084 0.0606059 4.14091C0.0606059 4.14098 0.0606059 4.14105 0.0606059 4.14112C0.0606059 4.14119 0.0606059 4.14126 0.0606059 4.14133C0.0606059 4.1414 0.0606059 4.14146 0.0606059 4.14153C0.0606059 4.1416 0.0606059 4.14167 0.0606059 4.14174C0.0606059 4.14181 0.0606059 4.14188 0.0606059 4.14195C0.0606059 4.14202 0.0606059 4.14208 0.0606059 4.14215C0.0606059 4.14222 0.0606059 4.14229 0.0606059 4.14236C0.0606059 4.14243 0.0606059 4.1425 0.0606059 4.14257C0.0606059 4.14263 0.0606059 4.1427 0.0606059 4.14277C0.0606059 4.14284 0.0606059 4.14291 0.0606059 4.14298C0.0606059 4.14305 0.0606059 4.14312 0.0606059 4.14319C0.0606059 4.14325 0.0606059 4.14332 0.0606059 4.14339C0.0606059 4.14346 0.0606059 4.14353 0.0606059 4.1436C0.0606059 4.14367 0.0606059 4.14374 0.0606059 4.14381C0.0606059 4.14387 0.0606059 4.14394 0.0606059 4.14401C0.0606059 4.14408 0.0606059 4.14415 0.0606059 4.14422C0.0606059 4.14429 0.0606059 4.14436 0.0606059 4.14442C0.0606059 4.14449 0.0606059 4.14456 0.0606059 4.14463C0.0606059 4.1447 0.0606059 4.14477 0.0606059 4.14484C0.0606059 4.14491 0.0606059 4.14498 0.0606059 4.14504C0.0606059 4.14511 0.0606059 4.14518 0.0606059 4.14525C0.0606059 4.14532 0.0606059 4.14539 0.0606059 4.14546C0.0606059 4.14553 0.0606059 4.1456 0.0606059 4.14566C0.0606059 4.14573 0.0606059 4.1458 0.0606059 4.14587C0.0606059 4.14594 0.0606059 4.14601 0.0606059 4.14608C0.0606059 4.14615 0.0606059 4.14621 0.0606059 4.14628C0.0606059 4.14635 0.0606059 4.14642 0.0606059 4.14649C0.0606059 4.14656 0.0606059 4.14663 0.0606059 4.1467C0.0606059 4.14677 0.0606059 4.14683 0.0606059 4.1469C0.0606059 4.14697 0.0606059 4.14704 0.0606059 4.14711C0.0606059 4.14718 0.0606059 4.14725 0.0606059 4.14732C0.0606059 4.14739 0.0606059 4.14745 0.0606059 4.14752C0.0606059 4.14759 0.0606059 4.14766 0.0606059 4.14773C0.0606059 4.1478 0.0606059 4.14787 0.0606059 4.14794C0.0606059 4.148 0.0606059 4.14807 0.0606059 4.14814C0.0606059 4.14821 0.0606059 4.14828 0.0606059 4.14835C0.0606059 4.14842 0.0606059 4.14849 0.0606059 4.14856C0.0606059 4.14862 0.0606059 4.14869 0.0606059 4.14876C0.0606059 4.14883 0.0606059 4.1489 0.0606059 4.14897C0.0606059 4.14904 0.0606059 4.14911 0.0606059 4.14918C0.0606059 4.14924 0.0606059 4.14931 0.0606059 4.14938C0.0606059 4.14945 0.0606059 4.14952 0.0606059 4.14959C0.0606059 4.14966 0.0606059 4.14973 0.0606059 4.14979C0.0606059 4.14986 0.0606059 4.14993 0.0606059 4.15C0.0606059 4.15007 0.0606059 4.15014 0.0606059 4.15021C0.0606059 4.15028 0.0606059 4.15035 0.0606059 4.15041C0.0606059 4.15048 0.0606059 4.15055 0.0606059 4.15062C0.0606059 4.15069 0.0606059 4.15076 0.0606059 4.15083C0.0606059 4.1509 0.0606059 4.15097 0.0606059 4.15103C0.0606059 4.1511 0.0606059 4.15117 0.0606059 4.15124C0.0606059 4.15131 0.0606059 4.15138 0.0606059 4.15145C0.0606059 4.15152 0.0606059 4.15158 0.0606059 4.15165C0.0606059 4.15172 0.0606059 4.15179 0.0606059 4.15186C0.0606059 4.15193 0.0606059 4.152 0.0606059 4.15207C0.0606059 4.15214 0.0606059 4.1522 0.0606059 4.15227H1.06061Z" fill="#F5EDE4" mask="url(#path-1-inside-1_11352_1843)"/>
</svg>
