<svg width="20" height="20" viewBox="0 0 20 20" fill="none" xmlns="http://www.w3.org/2000/svg">
<path fill-rule="evenodd" clip-rule="evenodd" d="M19.1666 15.6663C19.1666 16.2186 18.7189 16.6663 18.1666 16.6663H1.83325C1.28097 16.6663 0.833252 16.2186 0.833252 15.6663V13.7635C0.833252 13.2746 1.1977 12.8732 1.6383 12.6614C2.64176 12.1791 3.33325 11.16 3.33325 9.99967C3.33325 8.8393 2.64176 7.82023 1.63828 7.33791C1.1977 7.12614 0.833252 6.72472 0.833252 6.23588V4.33301C0.833252 3.78072 1.28097 3.33301 1.83325 3.33301H18.1666C18.7189 3.33301 19.1666 3.78072 19.1666 4.33301V6.23588C19.1666 6.72472 18.8021 7.12614 18.3616 7.33791C17.3581 7.82024 16.6666 8.83931 16.6666 9.99967C16.6666 11.16 17.3581 12.1791 18.3615 12.6614C18.8021 12.8732 19.1666 13.2746 19.1666 13.7635V15.6663ZM13.0892 8.08892C13.4146 7.76349 13.4146 7.23586 13.0892 6.91042C12.7637 6.58499 12.2361 6.58498 11.9107 6.91042L6.91066 11.9104C6.58523 12.2359 6.58523 12.7635 6.91067 13.0889C7.2361 13.4144 7.76373 13.4144 8.08917 13.0889L13.0892 8.08892ZM10.8333 12.4997C10.8333 11.5792 11.5794 10.833 12.4999 10.833C13.4204 10.833 14.1666 11.5792 14.1666 12.4997C14.1666 13.4202 13.4204 14.1663 12.4999 14.1663C11.5794 14.1663 10.8333 13.4202 10.8333 12.4997ZM7.49992 5.83301C6.57944 5.83301 5.83325 6.5792 5.83325 7.49967C5.83325 8.42017 6.57944 9.16634 7.49992 9.16634C8.42042 9.16634 9.16658 8.42017 9.16658 7.49967C9.16658 6.5792 8.42042 5.83301 7.49992 5.83301Z" fill="#B9804E"/>
</svg>
