<svg width="20" height="20" viewBox="0 0 20 20" fill="none" xmlns="http://www.w3.org/2000/svg">
<path d="M11.6667 2.50016H5.17087C4.67433 2.50016 4.24681 2.85064 4.14944 3.33754L3.48358 6.66683H1.66675V8.3335H3.42404L4.56762 18.2446C4.62827 18.7702 5.07332 19.1668 5.60242 19.1668H14.3977C14.9268 19.1668 15.3719 18.7702 15.4325 18.2446L16.5761 8.3335H18.3334V6.66683H16.5166L15.8507 3.33754C15.7533 2.85064 15.3258 2.50016 14.8292 2.50016H13.3334V0.833496H11.6667V2.50016ZM14.8169 6.66683H5.18325L5.68325 4.16683H14.3169L14.8169 6.66683ZM5.10176 8.3335H14.8984L13.8407 17.5002H6.15946L5.10176 8.3335Z" fill="#333333"/>
</svg>
