<svg width="20" height="20" viewBox="0 0 20 20" fill="none" xmlns="http://www.w3.org/2000/svg">
<path fill-rule="evenodd" clip-rule="evenodd" d="M1.66675 3.33317C1.66675 2.4127 2.41294 1.6665 3.33341 1.6665H7.50008C8.42056 1.6665 9.16675 2.4127 9.16675 3.33317V7.49984C9.16675 8.42031 8.42056 9.1665 7.50008 9.1665H3.33341C2.41294 9.1665 1.66675 8.42031 1.66675 7.49984V3.33317ZM7.50008 3.33317H3.33341V7.49984H7.50008V3.33317Z" fill="#333333"/>
<path fill-rule="evenodd" clip-rule="evenodd" d="M10.9612 6.38701C10.3104 5.73613 10.3104 4.68086 10.9612 4.02998L13.6129 1.37833C14.2638 0.72746 15.319 0.727461 15.9699 1.37833L18.6215 4.02998C19.2724 4.68086 19.2724 5.73613 18.6215 6.38701L15.9699 9.03866C15.319 9.68953 14.2638 9.68953 13.6129 9.03866L10.9612 6.38701ZM14.7914 2.55685L12.1397 5.2085L14.7914 7.86015L17.443 5.2085L14.7914 2.55685Z" fill="#333333"/>
<path fill-rule="evenodd" clip-rule="evenodd" d="M10.8335 12.4997C10.8335 11.5792 11.5797 10.833 12.5002 10.833H16.6668C17.5873 10.833 18.3335 11.5792 18.3335 12.4997V16.6663C18.3335 17.5868 17.5873 18.333 16.6668 18.333H12.5002C11.5797 18.333 10.8335 17.5868 10.8335 16.6663V12.4997ZM16.6668 12.4997H12.5002V16.6663H16.6668V12.4997Z" fill="#333333"/>
<path fill-rule="evenodd" clip-rule="evenodd" d="M1.66675 12.4997C1.66675 11.5792 2.41294 10.833 3.33341 10.833H7.50008C8.42056 10.833 9.16675 11.5792 9.16675 12.4997V16.6663C9.16675 17.5868 8.42056 18.333 7.50008 18.333H3.33341C2.41294 18.333 1.66675 17.5868 1.66675 16.6663V12.4997ZM7.50008 12.4997H3.33341V16.6663H7.50008V12.4997Z" fill="#333333"/>
</svg>
