<svg width="16" height="11" viewBox="0 0 16 11" fill="none" xmlns="http://www.w3.org/2000/svg">
<path d="M5.64453 8.23321C6.95516 7.10168 8.8749 7.1017 10.1855 8.23321C10.2515 8.29405 10.2901 8.37983 10.292 8.47051C10.2938 8.56124 10.2588 8.64914 10.1953 8.7127L8.14258 10.826C8.08242 10.8881 8.00062 10.9236 7.91504 10.9236C7.82955 10.9236 7.7476 10.888 7.6875 10.826L5.63477 8.7127C5.57136 8.64909 5.53621 8.56124 5.53809 8.47051C5.53997 8.37991 5.5787 8.294 5.64453 8.23321ZM2.87012 5.70293C5.69385 3.0218 10.0669 3.02186 12.8906 5.70293C12.9543 5.76569 12.9912 5.85189 12.9922 5.94219C12.9931 6.03267 12.958 6.1202 12.8955 6.18438L11.709 7.40801C11.5867 7.53289 11.3891 7.53549 11.2637 7.41387C10.3364 6.55686 9.1298 6.08176 7.87891 6.08184C6.62892 6.08247 5.42364 6.55744 4.49707 7.41387C4.37165 7.53551 4.17402 7.53296 4.05176 7.40801L2.86621 6.18438C2.8037 6.12039 2.7688 6.03352 2.76953 5.94317C2.77037 5.85268 2.80636 5.7658 2.87012 5.70293ZM0.0986328 3.17754C4.42963 -1.05918 11.2628 -1.05918 15.5938 3.17754C15.6563 3.24045 15.6918 3.32618 15.6924 3.41582C15.6929 3.50558 15.6586 3.59237 15.5967 3.65606L14.4082 4.87969C14.2858 5.00486 14.087 5.00612 13.9629 4.88262C12.3128 3.28147 10.1234 2.38861 7.84668 2.38848C5.56972 2.38848 3.37979 3.28131 1.72949 4.88262C1.60542 5.00633 1.40651 5.0051 1.28418 4.87969L0.0957031 3.65606C0.0337818 3.59233 -0.00057851 3.50558 0 3.41582C0.000578196 3.32618 0.0360443 3.24042 0.0986328 3.17754Z" fill="#101010"/>
</svg>
